<svg width="1780" height="584" viewBox="0 0 1780 584" fill="none" xmlns="http://www.w3.org/2000/svg">
<g clip-path="url(#clip0_402_365)">
<rect width="1780" height="584" rx="16" fill="#131112"/>
<g opacity="0.2">
<g filter="url(#filter0_f_402_365)">
<ellipse cx="196.551" cy="291.187" rx="432.103" ry="334.394" transform="rotate(-165 196.551 291.187)" fill="#8E00BF"/>
</g>
<g filter="url(#filter1_f_402_365)">
<ellipse cx="499" cy="536.932" rx="393.694" ry="346.85" transform="rotate(-165 499 536.932)" fill="url(#paint0_linear_402_365)"/>
</g>
<g filter="url(#filter2_f_402_365)">
<ellipse cx="108.028" cy="521.938" rx="338.607" ry="332.957" transform="rotate(-165 108.028 521.938)" fill="#8E5CFF"/>
</g>
<g filter="url(#filter3_f_402_365)">
<ellipse cx="-261.057" cy="470.698" rx="408.014" ry="378.188" transform="rotate(-165 -261.057 470.698)" fill="url(#paint1_linear_402_365)"/>
</g>
<g filter="url(#filter4_f_402_365)">
<g opacity="0.8">
<path d="M-472.802 1110.32C-430.037 1127.57 -373.275 1131.01 -324.225 1123.25C-277.275 1115.82 -216.989 1094.53 -191.335 1043.91C-167.474 996.829 -181.1 941.277 -201.345 901.032C-221.871 860.234 -258.316 816.794 -305.823 797.633C-396.223 761.17 -499.952 800.653 -540.019 879.709C-558.746 916.658 -565.413 961.74 -557.773 1002.57C-550.221 1042.94 -526.229 1088.77 -472.802 1110.32Z" stroke="url(#paint2_linear_402_365)" stroke-width="440.834"/>
<path d="M-380.872 1201.18C-338.108 1218.43 -281.345 1221.86 -232.296 1214.11C-185.345 1206.68 -125.059 1185.39 -99.4051 1134.77C-75.5442 1087.69 -89.1701 1032.14 -109.415 991.892C-129.941 951.094 -166.386 907.654 -213.893 888.493C-304.293 852.029 -408.023 891.512 -448.09 970.568C-466.816 1007.52 -473.484 1052.6 -465.843 1093.43C-458.291 1133.8 -434.299 1179.63 -380.872 1201.18Z" stroke="url(#paint3_linear_402_365)" stroke-width="440.834"/>
</g>
</g>
</g>
<g opacity="0.2">
<g filter="url(#filter5_f_402_365)">
<ellipse cx="1707.14" cy="314.242" rx="432.103" ry="334.394" transform="rotate(120 1707.14 314.242)" fill="#8E00BF"/>
</g>
<g filter="url(#filter6_f_402_365)">
<ellipse cx="2022.79" cy="85.6961" rx="393.694" ry="346.85" transform="rotate(120 2022.79 85.6961)" fill="url(#paint4_linear_402_365)"/>
</g>
<g filter="url(#filter7_f_402_365)">
<ellipse cx="1907.11" cy="459.467" rx="338.607" ry="332.957" transform="rotate(120 1907.11 459.467)" fill="#8E5CFF"/>
</g>
<g filter="url(#filter8_f_402_365)">
<ellipse cx="1762.09" cy="802.717" rx="408.014" ry="378.188" transform="rotate(120 1762.09 802.717)" fill="url(#paint5_linear_402_365)"/>
</g>
<g filter="url(#filter9_f_402_365)">
<g opacity="0.8">
<path d="M2325.07 1172.82C2352.8 1135.97 2370.8 1082.03 2376.01 1032.65C2380.98 985.375 2376.02 921.632 2333.76 883.752C2294.46 848.518 2237.28 847.302 2193.17 856.441C2148.44 865.709 2097.05 889.669 2066.25 930.598C2007.63 1008.48 2018.92 1118.89 2084.91 1178.06C2115.76 1205.71 2157.58 1223.82 2199 1227.01C2239.94 1230.16 2290.42 1218.85 2325.07 1172.82Z" stroke="url(#paint6_linear_402_365)" stroke-width="440.834"/>
<path d="M2436.62 1107.54C2464.35 1070.69 2482.36 1016.75 2487.56 967.367C2492.54 920.094 2487.57 856.351 2445.32 818.47C2406.02 783.237 2348.83 782.021 2304.72 791.16C2260 800.427 2208.61 824.387 2177.8 865.316C2119.19 943.199 2130.48 1053.61 2196.47 1112.78C2227.31 1140.43 2269.13 1158.54 2310.55 1161.72C2351.49 1164.88 2401.98 1153.56 2436.62 1107.54Z" stroke="url(#paint7_linear_402_365)" stroke-width="440.834"/>
</g>
</g>
</g>
<g opacity="0.2">
<g filter="url(#filter10_f_402_365)">
<ellipse cx="1008.23" cy="477.114" rx="432.103" ry="334.394" transform="rotate(135 1008.23 477.114)" fill="#8E00BF"/>
</g>
<g filter="url(#filter11_f_402_365)">
<ellipse cx="1372.28" cy="338.054" rx="393.694" ry="346.85" transform="rotate(135 1372.28 338.054)" fill="url(#paint8_linear_402_365)"/>
</g>
<g filter="url(#filter12_f_402_365)">
<ellipse cx="1163.8" cy="669.144" rx="338.607" ry="332.957" transform="rotate(135 1163.8 669.144)" fill="#8E5CFF"/>
</g>
<g filter="url(#filter13_f_402_365)">
<ellipse cx="934.884" cy="963.168" rx="408.014" ry="378.188" transform="rotate(135 934.884 963.168)" fill="url(#paint9_linear_402_365)"/>
</g>
<g filter="url(#filter14_f_402_365)">
</g>
</g>
<g opacity="0.2">
<g filter="url(#filter15_f_402_365)">
<ellipse cx="406.665" cy="432.388" rx="432.103" ry="334.394" transform="rotate(135 406.665 432.388)" fill="#8E00BF"/>
</g>
<g filter="url(#filter16_f_402_365)">
<ellipse cx="770.712" cy="293.327" rx="393.694" ry="346.85" transform="rotate(135 770.712 293.327)" fill="url(#paint10_linear_402_365)"/>
</g>
<g filter="url(#filter17_f_402_365)">
<ellipse cx="562.238" cy="624.417" rx="338.607" ry="332.957" transform="rotate(135 562.238 624.417)" fill="#8E5CFF"/>
</g>
<g filter="url(#filter18_f_402_365)">
<ellipse cx="333.317" cy="918.441" rx="408.014" ry="378.188" transform="rotate(135 333.317 918.441)" fill="url(#paint11_linear_402_365)"/>
</g>
<g filter="url(#filter19_f_402_365)">
</g>
</g>
<g opacity="0.2">
<g filter="url(#filter20_f_402_365)">
<ellipse cx="250.997" cy="85.9972" rx="432.103" ry="334.394" transform="rotate(135 250.997 85.9972)" fill="#8E00BF"/>
</g>
<g filter="url(#filter21_f_402_365)">
<ellipse cx="589.997" cy="99.9972" rx="432.103" ry="334.394" transform="rotate(135 589.997 99.9972)" fill="#8E00BF"/>
</g>
<g filter="url(#filter22_f_402_365)">
<ellipse cx="861.997" cy="124.997" rx="432.103" ry="334.394" transform="rotate(135 861.997 124.997)" fill="#8E00BF"/>
</g>
<g filter="url(#filter23_f_402_365)">
<ellipse cx="1428" cy="124.997" rx="432.103" ry="334.394" transform="rotate(135 1428 124.997)" fill="#8E00BF"/>
</g>
<g filter="url(#filter24_f_402_365)">
<ellipse cx="1409.71" cy="425.335" rx="393.694" ry="346.85" transform="rotate(135 1409.71 425.335)" fill="url(#paint12_linear_402_365)"/>
</g>
<g filter="url(#filter25_f_402_365)">
<ellipse cx="1201.23" cy="756.425" rx="338.607" ry="332.957" transform="rotate(135 1201.23 756.425)" fill="#8E5CFF"/>
</g>
<g filter="url(#filter26_f_402_365)">
<ellipse cx="972.313" cy="1050.45" rx="408.014" ry="378.188" transform="rotate(135 972.313 1050.45)" fill="url(#paint13_linear_402_365)"/>
</g>
</g>
</g>
<defs>
<filter id="filter0_f_402_365" x="-472.793" y="-293.72" width="1338.69" height="1169.81" filterUnits="userSpaceOnUse" color-interpolation-filters="sRGB">
<feFlood flood-opacity="0" result="BackgroundImageFix"/>
<feBlend mode="normal" in="SourceGraphic" in2="BackgroundImageFix" result="shape"/>
<feGaussianBlur stdDeviation="121.5" result="effect1_foregroundBlur_402_365"/>
</filter>
<filter id="filter1_f_402_365" x="-134.82" y="-56.3438" width="1267.64" height="1186.55" filterUnits="userSpaceOnUse" color-interpolation-filters="sRGB">
<feFlood flood-opacity="0" result="BackgroundImageFix"/>
<feBlend mode="normal" in="SourceGraphic" in2="BackgroundImageFix" result="shape"/>
<feGaussianBlur stdDeviation="121.5" result="effect1_foregroundBlur_402_365"/>
</filter>
<filter id="filter2_f_402_365" x="-473.287" y="-54.4844" width="1162.63" height="1152.84" filterUnits="userSpaceOnUse" color-interpolation-filters="sRGB">
<feFlood flood-opacity="0" result="BackgroundImageFix"/>
<feBlend mode="normal" in="SourceGraphic" in2="BackgroundImageFix" result="shape"/>
<feGaussianBlur stdDeviation="121.5" result="effect1_foregroundBlur_402_365"/>
</filter>
<filter id="filter3_f_402_365" x="-910.237" y="-152.659" width="1298.36" height="1246.71" filterUnits="userSpaceOnUse" color-interpolation-filters="sRGB">
<feFlood flood-opacity="0" result="BackgroundImageFix"/>
<feBlend mode="normal" in="SourceGraphic" in2="BackgroundImageFix" result="shape"/>
<feGaussianBlur stdDeviation="121.5" result="effect1_foregroundBlur_402_365"/>
</filter>
<filter id="filter4_f_402_365" x="-1112.36" y="225.108" width="1577.28" height="1552.2" filterUnits="userSpaceOnUse" color-interpolation-filters="sRGB">
<feFlood flood-opacity="0" result="BackgroundImageFix"/>
<feBlend mode="normal" in="SourceGraphic" in2="BackgroundImageFix" result="shape"/>
<feGaussianBlur stdDeviation="169.863" result="effect1_foregroundBlur_402_365"/>
</filter>
<filter id="filter5_f_402_365" x="1102.81" y="-338.726" width="1208.66" height="1305.94" filterUnits="userSpaceOnUse" color-interpolation-filters="sRGB">
<feFlood flood-opacity="0" result="BackgroundImageFix"/>
<feBlend mode="normal" in="SourceGraphic" in2="BackgroundImageFix" result="shape"/>
<feGaussianBlur stdDeviation="121.5" result="effect1_foregroundBlur_402_365"/>
</filter>
<filter id="filter6_f_402_365" x="1420.61" y="-539.907" width="1204.35" height="1251.21" filterUnits="userSpaceOnUse" color-interpolation-filters="sRGB">
<feFlood flood-opacity="0" result="BackgroundImageFix"/>
<feBlend mode="normal" in="SourceGraphic" in2="BackgroundImageFix" result="shape"/>
<feGaussianBlur stdDeviation="121.5" result="effect1_foregroundBlur_402_365"/>
</filter>
<filter id="filter7_f_402_365" x="1329.68" y="-120.795" width="1154.86" height="1160.52" filterUnits="userSpaceOnUse" color-interpolation-filters="sRGB">
<feFlood flood-opacity="0" result="BackgroundImageFix"/>
<feBlend mode="normal" in="SourceGraphic" in2="BackgroundImageFix" result="shape"/>
<feGaussianBlur stdDeviation="121.5" result="effect1_foregroundBlur_402_365"/>
</filter>
<filter id="filter8_f_402_365" x="1133.18" y="158.873" width="1257.83" height="1287.69" filterUnits="userSpaceOnUse" color-interpolation-filters="sRGB">
<feFlood flood-opacity="0" result="BackgroundImageFix"/>
<feBlend mode="normal" in="SourceGraphic" in2="BackgroundImageFix" result="shape"/>
<feGaussianBlur stdDeviation="121.5" result="effect1_foregroundBlur_402_365"/>
</filter>
<filter id="filter9_f_402_365" x="1472.18" y="231.823" width="1573.14" height="1550.29" filterUnits="userSpaceOnUse" color-interpolation-filters="sRGB">
<feFlood flood-opacity="0" result="BackgroundImageFix"/>
<feBlend mode="normal" in="SourceGraphic" in2="BackgroundImageFix" result="shape"/>
<feGaussianBlur stdDeviation="169.863" result="effect1_foregroundBlur_402_365"/>
</filter>
<filter id="filter10_f_402_365" x="378.863" y="-152.254" width="1258.74" height="1258.74" filterUnits="userSpaceOnUse" color-interpolation-filters="sRGB">
<feFlood flood-opacity="0" result="BackgroundImageFix"/>
<feBlend mode="normal" in="SourceGraphic" in2="BackgroundImageFix" result="shape"/>
<feGaussianBlur stdDeviation="121.5" result="effect1_foregroundBlur_402_365"/>
</filter>
<filter id="filter11_f_402_365" x="758.261" y="-275.963" width="1228.03" height="1228.03" filterUnits="userSpaceOnUse" color-interpolation-filters="sRGB">
<feFlood flood-opacity="0" result="BackgroundImageFix"/>
<feBlend mode="normal" in="SourceGraphic" in2="BackgroundImageFix" result="shape"/>
<feGaussianBlur stdDeviation="121.5" result="effect1_foregroundBlur_402_365"/>
</filter>
<filter id="filter12_f_402_365" x="585.01" y="90.3496" width="1157.59" height="1157.59" filterUnits="userSpaceOnUse" color-interpolation-filters="sRGB">
<feFlood flood-opacity="0" result="BackgroundImageFix"/>
<feBlend mode="normal" in="SourceGraphic" in2="BackgroundImageFix" result="shape"/>
<feGaussianBlur stdDeviation="121.5" result="effect1_foregroundBlur_402_365"/>
</filter>
<filter id="filter13_f_402_365" x="298.498" y="326.782" width="1272.77" height="1272.77" filterUnits="userSpaceOnUse" color-interpolation-filters="sRGB">
<feFlood flood-opacity="0" result="BackgroundImageFix"/>
<feBlend mode="normal" in="SourceGraphic" in2="BackgroundImageFix" result="shape"/>
<feGaussianBlur stdDeviation="121.5" result="effect1_foregroundBlur_402_365"/>
</filter>
<filter id="filter14_f_402_365" x="569.399" y="534.043" width="1593.53" height="1519.08" filterUnits="userSpaceOnUse" color-interpolation-filters="sRGB">
<feFlood flood-opacity="0" result="BackgroundImageFix"/>
<feBlend mode="normal" in="SourceGraphic" in2="BackgroundImageFix" result="shape"/>
<feGaussianBlur stdDeviation="169.863" result="effect1_foregroundBlur_402_365"/>
</filter>
<filter id="filter15_f_402_365" x="-222.704" y="-196.98" width="1258.74" height="1258.74" filterUnits="userSpaceOnUse" color-interpolation-filters="sRGB">
<feFlood flood-opacity="0" result="BackgroundImageFix"/>
<feBlend mode="normal" in="SourceGraphic" in2="BackgroundImageFix" result="shape"/>
<feGaussianBlur stdDeviation="121.5" result="effect1_foregroundBlur_402_365"/>
</filter>
<filter id="filter16_f_402_365" x="156.695" y="-320.689" width="1228.03" height="1228.03" filterUnits="userSpaceOnUse" color-interpolation-filters="sRGB">
<feFlood flood-opacity="0" result="BackgroundImageFix"/>
<feBlend mode="normal" in="SourceGraphic" in2="BackgroundImageFix" result="shape"/>
<feGaussianBlur stdDeviation="121.5" result="effect1_foregroundBlur_402_365"/>
</filter>
<filter id="filter17_f_402_365" x="-16.556" y="45.623" width="1157.59" height="1157.59" filterUnits="userSpaceOnUse" color-interpolation-filters="sRGB">
<feFlood flood-opacity="0" result="BackgroundImageFix"/>
<feBlend mode="normal" in="SourceGraphic" in2="BackgroundImageFix" result="shape"/>
<feGaussianBlur stdDeviation="121.5" result="effect1_foregroundBlur_402_365"/>
</filter>
<filter id="filter18_f_402_365" x="-303.068" y="282.056" width="1272.77" height="1272.77" filterUnits="userSpaceOnUse" color-interpolation-filters="sRGB">
<feFlood flood-opacity="0" result="BackgroundImageFix"/>
<feBlend mode="normal" in="SourceGraphic" in2="BackgroundImageFix" result="shape"/>
<feGaussianBlur stdDeviation="121.5" result="effect1_foregroundBlur_402_365"/>
</filter>
<filter id="filter19_f_402_365" x="-32.1674" y="489.316" width="1593.53" height="1519.08" filterUnits="userSpaceOnUse" color-interpolation-filters="sRGB">
<feFlood flood-opacity="0" result="BackgroundImageFix"/>
<feBlend mode="normal" in="SourceGraphic" in2="BackgroundImageFix" result="shape"/>
<feGaussianBlur stdDeviation="169.863" result="effect1_foregroundBlur_402_365"/>
</filter>
<filter id="filter20_f_402_365" x="-378.372" y="-543.371" width="1258.74" height="1258.74" filterUnits="userSpaceOnUse" color-interpolation-filters="sRGB">
<feFlood flood-opacity="0" result="BackgroundImageFix"/>
<feBlend mode="normal" in="SourceGraphic" in2="BackgroundImageFix" result="shape"/>
<feGaussianBlur stdDeviation="121.5" result="effect1_foregroundBlur_402_365"/>
</filter>
<filter id="filter21_f_402_365" x="-39.3718" y="-529.371" width="1258.74" height="1258.74" filterUnits="userSpaceOnUse" color-interpolation-filters="sRGB">
<feFlood flood-opacity="0" result="BackgroundImageFix"/>
<feBlend mode="normal" in="SourceGraphic" in2="BackgroundImageFix" result="shape"/>
<feGaussianBlur stdDeviation="121.5" result="effect1_foregroundBlur_402_365"/>
</filter>
<filter id="filter22_f_402_365" x="232.628" y="-504.371" width="1258.74" height="1258.74" filterUnits="userSpaceOnUse" color-interpolation-filters="sRGB">
<feFlood flood-opacity="0" result="BackgroundImageFix"/>
<feBlend mode="normal" in="SourceGraphic" in2="BackgroundImageFix" result="shape"/>
<feGaussianBlur stdDeviation="121.5" result="effect1_foregroundBlur_402_365"/>
</filter>
<filter id="filter23_f_402_365" x="798.628" y="-504.371" width="1258.74" height="1258.74" filterUnits="userSpaceOnUse" color-interpolation-filters="sRGB">
<feFlood flood-opacity="0" result="BackgroundImageFix"/>
<feBlend mode="normal" in="SourceGraphic" in2="BackgroundImageFix" result="shape"/>
<feGaussianBlur stdDeviation="121.5" result="effect1_foregroundBlur_402_365"/>
</filter>
<filter id="filter24_f_402_365" x="795.691" y="-188.682" width="1228.03" height="1228.03" filterUnits="userSpaceOnUse" color-interpolation-filters="sRGB">
<feFlood flood-opacity="0" result="BackgroundImageFix"/>
<feBlend mode="normal" in="SourceGraphic" in2="BackgroundImageFix" result="shape"/>
<feGaussianBlur stdDeviation="121.5" result="effect1_foregroundBlur_402_365"/>
</filter>
<filter id="filter25_f_402_365" x="622.44" y="177.631" width="1157.59" height="1157.59" filterUnits="userSpaceOnUse" color-interpolation-filters="sRGB">
<feFlood flood-opacity="0" result="BackgroundImageFix"/>
<feBlend mode="normal" in="SourceGraphic" in2="BackgroundImageFix" result="shape"/>
<feGaussianBlur stdDeviation="121.5" result="effect1_foregroundBlur_402_365"/>
</filter>
<filter id="filter26_f_402_365" x="335.928" y="414.063" width="1272.77" height="1272.77" filterUnits="userSpaceOnUse" color-interpolation-filters="sRGB">
<feFlood flood-opacity="0" result="BackgroundImageFix"/>
<feBlend mode="normal" in="SourceGraphic" in2="BackgroundImageFix" result="shape"/>
<feGaussianBlur stdDeviation="121.5" result="effect1_foregroundBlur_402_365"/>
</filter>
<linearGradient id="paint0_linear_402_365" x1="856.105" y1="433.78" x2="-720.535" y2="656.237" gradientUnits="userSpaceOnUse">
<stop stop-color="#2100EC"/>
<stop offset="1" stop-color="#4100EC"/>
</linearGradient>
<linearGradient id="paint1_linear_402_365" x1="167.434" y1="445.392" x2="-1726.88" y2="401.212" gradientUnits="userSpaceOnUse">
<stop stop-color="#FE01B9"/>
<stop offset="1" stop-color="#CD90FD"/>
</linearGradient>
<linearGradient id="paint2_linear_402_365" x1="-478.846" y1="887.634" x2="-348.284" y2="1070.83" gradientUnits="userSpaceOnUse">
<stop stop-color="#FF4DAD"/>
<stop offset="1" stop-color="#CB3ACE" stop-opacity="0"/>
</linearGradient>
<linearGradient id="paint3_linear_402_365" x1="-359.766" y1="1272.37" x2="-362.065" y2="1024.74" gradientUnits="userSpaceOnUse">
<stop stop-color="#1003D2"/>
<stop offset="1" stop-color="#1A2B85" stop-opacity="0"/>
</linearGradient>
<linearGradient id="paint4_linear_402_365" x1="2379.89" y1="-17.4562" x2="803.253" y2="205" gradientUnits="userSpaceOnUse">
<stop stop-color="#2100EC"/>
<stop offset="1" stop-color="#4100EC"/>
</linearGradient>
<linearGradient id="paint5_linear_402_365" x1="2190.58" y1="777.411" x2="296.267" y2="733.231" gradientUnits="userSpaceOnUse">
<stop stop-color="#FE01B9"/>
<stop offset="1" stop-color="#CD90FD"/>
</linearGradient>
<linearGradient id="paint6_linear_402_365" x1="2108.4" y1="1121.02" x2="2319.15" y2="1042.32" gradientUnits="userSpaceOnUse">
<stop stop-color="#FF4DAD"/>
<stop offset="1" stop-color="#CB3ACE" stop-opacity="0"/>
</linearGradient>
<linearGradient id="paint7_linear_402_365" x1="2510.85" y1="1105.57" x2="2271.06" y2="1043.7" gradientUnits="userSpaceOnUse">
<stop stop-color="#1003D2"/>
<stop offset="1" stop-color="#1A2B85" stop-opacity="0"/>
</linearGradient>
<linearGradient id="paint8_linear_402_365" x1="1729.38" y1="234.901" x2="152.743" y2="457.358" gradientUnits="userSpaceOnUse">
<stop stop-color="#2100EC"/>
<stop offset="1" stop-color="#4100EC"/>
</linearGradient>
<linearGradient id="paint9_linear_402_365" x1="1363.37" y1="937.862" x2="-530.939" y2="893.682" gradientUnits="userSpaceOnUse">
<stop stop-color="#FE01B9"/>
<stop offset="1" stop-color="#CD90FD"/>
</linearGradient>
<linearGradient id="paint10_linear_402_365" x1="1127.82" y1="190.175" x2="-448.823" y2="412.631" gradientUnits="userSpaceOnUse">
<stop stop-color="#2100EC"/>
<stop offset="1" stop-color="#4100EC"/>
</linearGradient>
<linearGradient id="paint11_linear_402_365" x1="761.808" y1="893.135" x2="-1132.51" y2="848.956" gradientUnits="userSpaceOnUse">
<stop stop-color="#FE01B9"/>
<stop offset="1" stop-color="#CD90FD"/>
</linearGradient>
<linearGradient id="paint12_linear_402_365" x1="1766.81" y1="322.182" x2="190.173" y2="544.639" gradientUnits="userSpaceOnUse">
<stop stop-color="#2100EC"/>
<stop offset="1" stop-color="#4100EC"/>
</linearGradient>
<linearGradient id="paint13_linear_402_365" x1="1400.8" y1="1025.14" x2="-493.509" y2="980.964" gradientUnits="userSpaceOnUse">
<stop stop-color="#FE01B9"/>
<stop offset="1" stop-color="#CD90FD"/>
</linearGradient>
<clipPath id="clip0_402_365">
<rect width="1780" height="584" rx="16" fill="white"/>
</clipPath>
</defs>
</svg>
