<svg width="64" height="64" viewBox="0 0 64 64" fill="none" xmlns="http://www.w3.org/2000/svg">
<path d="M33.0535 25.4508H38.6686V31.1915H41.5075C42.8353 31.1854 44.1533 30.9647 45.4105 30.5377C46.0708 30.3192 46.7064 30.0323 47.3071 29.6817C46.5387 28.618 46.0831 27.3606 45.9917 26.0516C45.7554 24.1413 46.246 22.212 47.366 20.6466L47.955 19.9634L48.6579 20.5288C50.5217 21.8953 51.7845 23.93 52.182 26.2067C54.349 25.5411 56.6913 25.7592 58.6982 26.8133L59.4698 27.257L59.0634 28.0424C58.2412 29.4264 57.0268 30.5352 55.5738 31.2283C54.1209 31.9214 52.4949 32.1676 50.9019 31.9356C46.0329 44.0452 35.4488 49.7781 22.6127 49.7781C15.9806 49.7781 9.89833 47.2984 6.4331 41.4164L6.37617 41.3202L5.88141 40.3012C4.74026 37.7064 4.29436 34.8591 4.5876 32.0396L4.66613 31.1895H9.4664V25.4508H15.0834V19.8299H26.3155V14.2188H33.0535V25.4508Z" fill="white"/>
<path d="M24.1495 48.823C21.4025 47.6524 19.2001 45.4858 17.9847 42.7583C16.5326 43.1468 15.0418 43.3727 13.5398 43.4317C12.8854 43.4684 12.2015 43.4867 11.4882 43.4867C10.661 43.4867 9.7899 43.4625 8.875 43.4141C10.6415 45.2533 12.7832 46.6908 15.1546 47.6288C17.5259 48.5669 20.0714 48.9835 22.6181 48.8504C23.1312 48.8504 23.6417 48.8413 24.1495 48.823ZM14.4783 26.7927H14.8709V30.8509H14.4783V26.7927ZM13.7401 26.7927H14.1327V30.8509H13.7322V26.7927H13.7401ZM13.0019 26.7927H13.3945V30.8509H13.0019V26.7927ZM12.2637 26.7927H12.6563V30.8509H12.2637V26.7927ZM11.5255 26.7927H11.9181V30.8509H11.5255V26.7927ZM10.803 26.7927H11.1956V30.8509H10.803V26.7927ZM10.3946 26.3883H15.2675V31.2553H10.3946V26.3883ZM16.0077 20.7713H20.8767V25.6383H16.0155L16.0077 20.7713ZM20.0855 21.1777H20.4781V25.2339H20.0855V21.1777ZM19.3473 21.1777H19.7399V25.2339H19.3473V21.1777ZM18.6091 21.1777H19.0017V25.2339H18.6091V21.1777ZM17.8709 21.1777H18.2635V25.2339H17.8709V21.1777ZM17.1327 21.1777H17.5253V25.2339H17.1327V21.1777ZM16.4102 21.1777H16.8028V25.2339H16.4102V21.1777ZM16.0038 26.3863H20.8727V31.2553H16.0155V26.3883L16.0038 26.3863ZM20.0815 26.7927H20.4742V30.8509H20.0815V26.7927ZM19.3433 26.7927H19.736V30.8509H19.3433V26.7927ZM18.6051 26.7927H18.9978V30.8509H18.6051V26.7927ZM17.8669 26.7927H18.2596V30.8509H17.8669V26.7927ZM17.1287 26.7927H17.5214V30.8509H17.1287V26.7927ZM16.4062 26.7927H16.7989V30.8509H16.4062V26.7927ZM21.6168 26.3863H26.4937V31.2553H21.6247V26.3883L21.6168 26.3863ZM25.6927 26.7927H26.101V30.8509H25.7084L25.6927 26.7927ZM24.9545 26.7927H25.3471V30.8509H24.9545V26.7927ZM24.2162 26.7927H24.6089V30.8509H24.2162V26.7927ZM23.478 26.7927H23.8707V30.8509H23.478V26.7927ZM22.7398 26.7927H23.1325V30.8509H22.7398V26.7927ZM22.0173 26.7927H22.41V30.8509H22.0173V26.7927ZM21.6129 20.7713H26.4937V25.6383H21.6247V20.7713H21.6129ZM25.6887 21.1777H26.101V25.2339H25.7084L25.6887 21.1777ZM24.9505 21.1777H25.3432V25.2339H24.9505V21.1777ZM24.2123 21.1777H24.605V25.2339H24.2123V21.1777ZM23.4741 21.1777H23.8668V25.2339H23.4741V21.1777ZM22.7359 21.1777H23.1286V25.2339H22.7359V21.1777ZM22.0134 21.1777H22.4061V25.2339H22.0134V21.1777ZM27.224 26.3863H32.0911V31.2553H27.2221V26.3883L27.224 26.3863ZM31.2998 26.7927H31.6925V30.8509H31.2998V26.7927ZM30.5616 26.7927H30.9543V30.8509H30.5616V26.7927ZM29.8234 26.7927H30.2161V30.8509H29.8234V26.7927ZM29.0852 26.7927H29.4779V30.8509H29.0852V26.7927ZM28.347 26.7927H28.7397V30.8509H28.347V26.7927ZM27.6245 26.7927H28.0015V30.8509H27.6088V26.7927H27.6245ZM27.2201 20.7713H32.0871V25.6383H27.2181L27.2201 20.7713ZM31.2959 21.1777H31.6886V25.2339H31.2959V21.1777ZM30.5577 21.1777H30.9504V25.2339H30.5577V21.1777ZM29.8195 21.1777H30.2122V25.2339H29.8195V21.1777ZM29.0813 21.1777H29.474V25.2339H29.0813V21.1777ZM28.3431 21.1777H28.7358V25.2339H28.3431V21.1777ZM27.6206 21.1777H27.9976V25.2339H27.6049V21.1777H27.6206ZM27.2162 15.1562H32.0832V20.0272H27.2142L27.2162 15.1562ZM31.292 15.5607H31.6847V19.6169H31.292V15.5607ZM30.5538 15.5607H30.9465V19.6169H30.5538V15.5607ZM29.8156 15.5607H30.2082V19.6169H29.8156V15.5607ZM29.0774 15.5607H29.47V19.6169H29.0774V15.5607ZM28.3392 15.5607H28.7318V19.6169H28.3392V15.5607ZM27.6167 15.5607H27.9936V19.6169H27.601V15.5607H27.6167ZM32.8273 26.3863H37.6943V31.2553H32.8253V26.3883L32.8273 26.3863ZM36.9031 26.7927H37.286V30.8509H36.8933V26.7927H36.9031ZM36.1649 26.7927H36.5693V30.8509H36.1649V26.7927ZM35.4267 26.7927H35.8194V30.8509H35.4267V26.7927ZM34.6885 26.7927H35.0812V30.8509H34.6885V26.7927ZM33.9503 26.7927H34.343V30.8509H33.9405V26.7927H33.9503ZM33.2278 26.7927H33.6205V30.8509H33.2396V26.7927H33.2278ZM20.5802 39.1458C20.8458 39.1458 21.1054 39.2246 21.3263 39.3722C21.5471 39.5197 21.7192 39.7295 21.8209 39.9748C21.9225 40.2202 21.9491 40.4902 21.8973 40.7507C21.8455 41.0112 21.7176 41.2505 21.5298 41.4383C21.342 41.6261 21.1027 41.754 20.8422 41.8058C20.5817 41.8577 20.3117 41.8311 20.0663 41.7294C19.8209 41.6278 19.6112 41.4557 19.4636 41.2348C19.3161 41.014 19.2373 40.7543 19.2373 40.4887C19.2373 40.1326 19.3788 39.791 19.6306 39.5392C19.8825 39.2873 20.2241 39.1458 20.5802 39.1458ZM20.5802 39.5267C20.6991 39.5266 20.8169 39.5486 20.9277 39.5915C20.875 39.6216 20.8299 39.6636 20.7961 39.7141C20.7623 39.7646 20.7407 39.8222 20.733 39.8825C20.7252 39.9427 20.7316 40.004 20.7515 40.0613C20.7714 40.1187 20.8044 40.1707 20.8479 40.2132C20.8913 40.2557 20.944 40.2875 21.0018 40.3062C21.0596 40.3248 21.121 40.3298 21.181 40.3208C21.2411 40.3117 21.2983 40.2888 21.348 40.2539C21.3977 40.219 21.4387 40.1731 21.4676 40.1196C21.5477 40.31 21.5644 40.521 21.5152 40.7216C21.4661 40.9222 21.3537 41.1016 21.1947 41.2334C21.0357 41.3651 20.8386 41.4423 20.6324 41.4533C20.4261 41.4644 20.2219 41.4088 20.0497 41.2947C19.8775 41.1807 19.7466 41.0143 19.6763 40.8202C19.606 40.626 19.6001 40.4144 19.6593 40.2166C19.7186 40.0187 19.8399 39.8452 20.0054 39.7217C20.1709 39.5982 20.3717 39.5312 20.5782 39.5306L20.5802 39.5267Z" fill="white"/>
</svg>
