<svg width="64" height="64" viewBox="0 0 64 64" fill="none" xmlns="http://www.w3.org/2000/svg">
<path d="M60.5308 29.3519L34.6377 3.46257C34.2832 3.10787 33.8622 2.8265 33.3989 2.63453C32.9356 2.44256 32.4391 2.34375 31.9376 2.34375C31.4361 2.34375 30.9395 2.44256 30.4762 2.63453C30.0129 2.8265 29.592 3.10787 29.2374 3.46257L23.8631 8.83688L30.6829 15.6567C31.4872 15.3821 32.3526 15.3391 33.1801 15.5327C34.0077 15.7263 34.7641 16.1487 35.3632 16.7515C35.9622 17.3544 36.3797 18.1136 36.5679 18.9424C36.7562 19.7712 36.7077 20.6362 36.4279 21.4387L42.9994 28.0139C43.9716 27.6716 45.0314 27.6705 46.0044 28.011C46.9773 28.3514 47.8052 29.013 48.352 29.8868C48.8987 30.7606 49.1316 31.7945 49.0122 32.8183C48.8929 33.8421 48.4285 34.7948 47.6954 35.5194C46.9533 36.266 45.975 36.7319 44.9277 36.8373C43.8803 36.9428 42.8287 36.6813 41.9527 36.0976C41.0767 35.5139 40.4305 34.6441 40.1246 33.6369C39.8186 32.6296 39.8718 31.5474 40.2752 30.575L34.1484 24.4446V40.5787C35.0797 41.0397 35.8249 41.8059 36.2597 42.7496C36.6945 43.6934 36.7927 44.7577 36.538 45.7651C36.2833 46.7725 35.691 47.6622 34.8598 48.2858C34.0286 48.9095 33.0088 49.2294 31.9704 49.1923C30.9319 49.1552 29.9376 48.7633 29.153 48.082C28.3685 47.4006 27.8411 46.471 27.6589 45.448C27.4767 44.425 27.6506 43.3704 28.1516 42.4601C28.6527 41.5497 29.4506 40.8386 30.4124 40.4452V24.1629C29.8575 23.9356 29.3531 23.6006 28.9282 23.1774C28.5034 22.7542 28.1666 22.251 27.9371 21.697C27.7076 21.143 27.5901 20.549 27.5912 19.9493C27.5924 19.3496 27.7123 18.7561 27.9439 18.203L21.2241 11.4796L3.47038 29.2333C3.11569 29.5878 2.83431 30.0088 2.64234 30.4721C2.45037 30.9354 2.35156 31.432 2.35156 31.9335C2.35156 32.4349 2.45037 32.9315 2.64234 33.3948C2.83431 33.8581 3.11569 34.2791 3.47038 34.6336L29.3634 60.5266C29.718 60.8813 30.1389 61.1627 30.6022 61.3547C31.0655 61.5467 31.5621 61.6455 32.0636 61.6455C32.5651 61.6455 33.0617 61.5467 33.525 61.3547C33.9883 61.1627 34.4092 60.8813 34.7637 60.5266L60.5345 34.7559C61.2499 34.0394 61.6517 33.0683 61.6517 32.0558C61.6517 31.0432 61.2499 30.0721 60.5345 29.3556" fill="white"/>
</svg>
