<svg width="56" height="56" viewBox="0 0 56 56" fill="none" xmlns="http://www.w3.org/2000/svg">
<path d="M0.742188 0.742188H55.2607V55.2607H0.742188V0.742188ZM15.0684 46.2954C16.28 48.8699 18.6727 50.9901 22.7616 50.9901C27.3048 50.9901 30.4245 48.567 30.4245 43.2666V25.7601H25.2755V43.1455C25.2755 45.7503 24.2154 46.4166 22.5496 46.4166C20.7929 46.4166 20.066 45.2051 19.2482 43.7815L15.0684 46.2954ZM33.1807 45.7503C34.6951 48.7185 37.7542 50.9901 42.5397 50.9901C47.3858 50.9901 51.0204 48.4762 51.0204 43.8421C51.0204 39.5715 48.567 37.6633 44.2056 35.7855L42.9335 35.2403C40.7224 34.3014 39.7835 33.6653 39.7835 32.1509C39.7835 30.9091 40.7224 29.9399 42.2368 29.9399C43.6907 29.9399 44.6599 30.5759 45.5382 32.1509L49.506 29.5159C47.8401 26.6082 45.4777 25.4875 42.2368 25.4875C37.6633 25.4875 34.7254 28.3952 34.7254 32.2418C34.7254 36.4215 37.1787 38.3903 40.8739 39.9652L42.146 40.5104C44.5084 41.5402 45.9017 42.1763 45.9017 43.933C45.9017 45.3868 44.5387 46.4469 42.4186 46.4469C39.9047 46.4469 38.4508 45.1445 37.3605 43.3272L33.1807 45.7503Z" fill="white"/>
</svg>
