<svg width="64" height="64" viewBox="0 0 64 64" fill="none" xmlns="http://www.w3.org/2000/svg">
<path d="M19.3696 16.7422L28.5398 35.0863L18.704 38.3662L13.7656 18.6127L19.3696 16.7422ZM38.6062 46.9042L33.7869 37.2617L45.5266 33.346L49.8589 40.1511L38.6062 46.9042ZM49.4164 28.1324L47.1034 28.9022L45.1771 25.8752L47.3228 25.336L49.4164 28.1324Z" fill="white"/>
<path fill-rule="evenodd" clip-rule="evenodd" d="M4.10938 13.406C4.10938 10.9404 5.08884 8.57575 6.8323 6.8323C8.57575 5.08884 10.9404 4.10938 13.406 4.10938L50.5926 4.10938C53.0582 4.10938 55.4228 5.08884 57.1663 6.8323C58.9097 8.57575 59.8892 10.9404 59.8892 13.406V50.5926C59.8892 53.0582 58.9097 55.4228 57.1663 57.1663C55.4228 58.9097 53.0582 59.8892 50.5926 59.8892H13.406C10.9404 59.8892 8.57575 58.9097 6.8323 57.1663C5.08884 55.4228 4.10938 53.0582 4.10938 50.5926V13.406ZM21.9738 13.6366C21.7732 13.237 21.4354 12.9231 21.0222 12.7524C20.609 12.5816 20.1481 12.5655 19.724 12.7069L10.9591 15.626C10.5144 15.7742 10.142 16.0848 9.91653 16.4958C9.69105 16.9067 9.62912 17.3877 9.74314 17.8424L15.5851 41.2141C15.6468 41.4633 15.7595 41.697 15.9159 41.9006C16.0724 42.1041 16.2693 42.273 16.4943 42.3967C16.7193 42.5203 16.9674 42.5961 17.2231 42.6191C17.4788 42.6421 17.7365 42.612 17.98 42.5305L30.2218 38.4474L36.179 50.362C36.2936 50.5914 36.4544 50.7946 36.6513 50.9588C36.8482 51.123 37.077 51.2448 37.3232 51.3164C37.5694 51.388 37.8278 51.4079 38.082 51.3748C38.3363 51.3418 38.581 51.2565 38.8007 51.1243L53.4076 42.3595C53.6205 42.2318 53.8057 42.0629 53.9523 41.8625C54.0989 41.6622 54.2039 41.4345 54.2611 41.1929C54.3183 40.9514 54.3265 40.7008 54.2853 40.456C54.2441 40.2112 54.1543 39.9771 54.0212 39.7675L49.1646 32.1332L53.0394 30.8428C53.3194 30.7498 53.5731 30.5915 53.7798 30.3811C53.9865 30.1706 54.1402 29.914 54.2281 29.6325C54.316 29.3509 54.3357 29.0525 54.2855 28.7618C54.2353 28.4711 54.1166 28.1966 53.9393 27.9608L49.5588 22.1188C49.339 21.8256 49.0375 21.6039 48.6921 21.4815C48.3468 21.3591 47.973 21.3415 47.6176 21.4309L41.7756 22.8923C41.4903 22.9641 41.226 23.1026 41.0047 23.2965C40.7833 23.4903 40.611 23.7339 40.5021 24.0072C40.3932 24.2806 40.3507 24.5759 40.3782 24.8688C40.4057 25.1618 40.5022 25.4441 40.66 25.6924L43.4676 30.1102L32.1108 33.8995L21.9738 13.6366Z" fill="white"/>
</svg>
