<svg width="64" height="64" viewBox="0 0 64 64" fill="none" xmlns="http://www.w3.org/2000/svg">
<path d="M14.988 22.1351C14.2744 22.1337 13.5614 22.1799 12.8539 22.2734C12.285 22.3568 11.8011 22.5257 11.4022 22.78C11.0084 23.0223 10.6921 23.3733 10.4911 23.7911C10.2927 24.2143 10.2077 24.7473 10.2077 25.4227V28.5436C10.2077 29.4143 10.0376 30.0328 9.69542 30.342C9.35325 30.6797 8.69927 30.8506 7.70312 30.8506V33.2105C8.67093 33.2105 9.35325 33.3794 9.69542 33.7171C10.0376 34.0548 10.2077 34.6733 10.2077 35.5725V38.7218C10.2077 39.9303 10.5782 40.7746 11.3172 41.2242C12.0866 41.6453 13.3095 41.8711 14.988 41.8711V39.678C14.1923 39.678 13.68 39.5356 13.4229 39.2833C13.1678 39.0311 13.0524 38.5245 13.0524 37.7656V34.7852C13.0524 34.0264 12.8539 33.4364 12.4854 33.0152C12.1129 32.5921 11.5156 32.2544 10.6916 32.0306C11.4873 31.7763 12.0846 31.4406 12.4551 30.9889C12.8256 30.5414 13.024 29.9493 13.024 29.219V26.2385C13.024 25.5061 13.1394 25.0016 13.3945 24.7473C13.6415 24.5032 14.2287 24.3506 14.988 24.3404V33.591C14.988 34.4373 15.0487 35.1453 15.1702 35.7149C15.2896 36.2846 15.5022 36.7728 15.8059 37.1879C16.1096 37.6009 16.5267 37.8999 17.0531 38.0891C17.5796 38.2783 18.2457 38.3739 19.0454 38.3739C19.2439 38.3739 19.4605 38.3597 19.6933 38.3333C20.1361 38.288 20.5756 38.2153 21.0094 38.1156L20.9365 36.1218C20.3898 36.1991 19.9404 36.2378 19.586 36.2378C18.8713 36.2378 18.3915 36.0506 18.1424 35.6763C17.8954 35.304 17.7719 34.5899 17.7719 33.5381V22.1331L14.988 22.1351ZM49.0392 22.1331V24.3547C49.8349 24.3547 50.3492 24.495 50.6043 24.7473C50.8614 25.0016 50.9748 25.5061 50.9748 26.2385V29.219C50.9748 29.9493 51.1732 30.5414 51.5417 30.9889C51.9143 31.4406 52.5116 31.7763 53.3073 32.0306C52.4832 32.2544 51.8859 32.5921 51.5154 33.0132C51.1449 33.4364 50.9465 34.0264 50.9465 34.7852V37.7656C50.9465 38.5245 50.8311 39.0311 50.576 39.2833C50.3209 39.5376 49.8066 39.678 49.0109 39.678V41.8711C50.6914 41.8711 51.9143 41.6473 52.6816 41.2242C53.4207 40.7746 53.7912 39.9303 53.7912 38.7218V35.5725C53.7912 34.6733 53.9633 34.0548 54.3034 33.7171C54.6456 33.3794 55.3279 33.2105 56.2957 33.2105V30.8506C55.2996 30.8506 54.6456 30.6797 54.3034 30.342C53.9633 30.0348 53.7912 29.4143 53.7912 28.5436V25.4227C53.7912 24.7473 53.7061 24.2143 53.5077 23.7931C53.3071 23.3746 52.9908 23.0229 52.5966 22.78C52.1533 22.5109 51.6587 22.3384 51.1449 22.2734C50.4473 22.1759 49.7436 22.129 49.0392 22.1331ZM35.9212 26.1511C34.5546 26.1511 33.4734 26.4359 32.706 27.0076C31.9367 27.5792 31.5398 28.4093 31.5398 29.4672C31.5398 30.3257 31.7666 31.0398 32.2505 31.5545C32.7344 32.0692 33.5017 32.527 34.5829 32.9542C34.67 32.9847 34.8664 33.0702 35.1822 33.1841C36.0933 33.5564 36.717 33.8148 37.0308 34.0711C37.1817 34.1837 37.3041 34.3304 37.3882 34.4994C37.4722 34.6683 37.5156 34.8547 37.5147 35.0436C37.5147 35.4993 37.3446 35.8431 37.0024 36.073C36.6603 36.3009 36.1764 36.4148 35.5507 36.4148C34.9534 36.4148 34.2711 36.3008 33.5584 36.0994C32.9357 35.9449 32.3339 35.7146 31.7666 35.4138L31.4831 37.5296C32.5056 38.1318 33.8723 38.4167 35.6074 38.4167C37.0591 38.4167 38.1687 38.1013 38.9664 37.4727C39.7621 36.844 40.161 35.9285 40.161 34.7567C40.161 33.8697 39.9058 33.1556 39.3916 32.6124C38.8813 32.0692 38.112 31.6115 37.0308 31.2107C36.2573 30.9055 35.33 30.6472 34.5829 30.1813C34.4374 30.0929 34.3184 29.9667 34.2386 29.8159C34.1587 29.6651 34.121 29.4954 34.1294 29.3248C34.1294 28.9525 34.2995 28.6656 34.6133 28.4662C34.9251 28.2669 35.3523 28.1814 35.9212 28.1814C36.9457 28.1814 37.9986 28.4378 39.1081 28.9525L39.8471 27.0076C38.7092 26.4379 37.4013 26.1511 35.9212 26.1511ZM45.0567 26.1511C43.69 26.1511 42.6068 26.4359 41.8394 27.0076C41.07 27.5792 40.6732 28.4093 40.6732 29.4672C40.6732 30.3257 40.9 31.0398 41.3839 31.5545C41.8698 32.0692 42.6371 32.527 43.7183 32.9542C43.8034 32.9847 44.0018 33.0702 44.3156 33.1841C45.2267 33.5564 45.8524 33.8148 46.1662 34.0711C46.3167 34.1839 46.4387 34.3307 46.5224 34.4996C46.6061 34.6686 46.6492 34.8549 46.6481 35.0436C46.6481 35.4993 46.478 35.8431 46.1358 36.073C45.7957 36.3009 45.3118 36.4148 44.6861 36.4148C44.011 36.3999 43.3409 36.2938 42.6938 36.0994C42.0704 35.945 41.468 35.7147 40.9 35.4138L40.6165 37.5296C41.641 38.1318 43.0056 38.4167 44.7428 38.4167C46.1642 38.4167 47.3041 38.1013 48.1565 37.4727C48.9542 36.844 49.351 35.9285 49.351 34.7567C49.351 33.8697 49.0959 33.1556 48.5837 32.6124C48.0714 32.0692 47.3041 31.6115 46.2229 31.2107C45.4292 30.8994 44.5181 30.6472 43.775 30.1813C43.6291 30.0932 43.5097 29.9671 43.4295 29.8162C43.3493 29.6654 43.3113 29.4956 43.3195 29.3248C43.3195 28.9525 43.4916 28.6656 43.8054 28.4662C44.1172 28.2669 44.5424 28.1814 45.1133 28.1814C46.1378 28.1814 47.1907 28.4378 48.3002 28.9525L48.9825 27.0076C47.8447 26.4379 46.5367 26.1511 45.0567 26.1511ZM25.9031 26.1795C24.1983 26.1795 22.86 26.7227 21.8638 27.8376C20.8677 28.9525 20.3858 30.4396 20.3858 32.2971C20.3858 34.242 20.896 35.7292 21.9489 36.8135C23.0017 37.9019 24.4534 38.4451 26.3323 38.4451C27.9521 38.4451 29.3491 38.0728 30.5437 37.3872L30.1448 35.3854C29.0287 36.0342 27.7635 36.3792 26.474 36.3863C25.4779 36.3863 24.6802 36.071 24.1112 35.4708C23.5443 34.8706 23.2305 34.0141 23.2001 32.9278H30.9992V31.7254C30.9992 30.0389 30.5437 28.6941 29.6609 27.6932C28.7498 26.6943 27.5249 26.1795 25.9031 26.1795ZM25.8768 28.1794C26.6461 28.1794 27.2414 28.4378 27.6686 28.9525C28.0958 29.4672 28.3226 30.2098 28.3226 31.1537H23.2325C23.3175 30.1528 23.601 29.4102 24.0566 28.924C24.5688 28.4378 25.1661 28.1794 25.8788 28.1794H25.8768Z" fill="white"/>
</svg>
