<svg width="64" height="64" viewBox="0 0 64 64" fill="none" xmlns="http://www.w3.org/2000/svg">
<path fill-rule="evenodd" clip-rule="evenodd" d="M31.7652 26.4524C31.5547 26.6642 31.3932 27.6791 31.3932 28.7916V30.7565H32.4783H33.5635V28.7916C33.5635 26.9071 33.232 26.0781 32.4783 26.0781C32.2907 26.0781 31.9698 26.2465 31.7652 26.4524ZM4.65195 26.7194C4.17045 27.0082 4.10938 27.6192 4.10938 32.1372C4.10938 37.6848 4.2613 38.1942 5.80097 37.8052C6.56182 37.6134 6.57174 37.5666 6.65762 33.7999L6.74474 29.9886L8.75475 32.4778C12.2043 36.7495 13.4094 37.93 14.3213 37.93C15.7896 37.93 15.891 37.556 15.891 32.1357C15.891 26.7069 15.7571 26.2334 14.2803 26.444C13.5843 26.5435 13.5635 26.6445 13.4786 30.3666C13.4308 32.4681 13.2913 34.1779 13.1685 34.1664C13.0461 34.1545 11.5504 32.4354 9.84517 30.3457C6.66382 26.4468 5.94452 25.9446 4.65195 26.7194ZM18.2241 29.2912L16.7043 32.1924L18.3363 35.0612L19.9681 37.93L23.2778 37.9269L26.5875 37.9237L28.0602 35.1542C28.87 33.6309 29.5329 32.2289 29.5329 32.0384C29.5329 31.5867 22.9057 31.5658 22.0714 32.015C21.7415 32.1927 21.4718 32.6088 21.4718 32.9397C21.4718 33.7934 22.401 34.1873 24.4144 34.1873H26.1575L25.6003 35.1357C25.0661 36.0455 24.9672 36.0808 23.1801 35.9934L21.3168 35.9027L20.3299 34.0329L19.343 32.1634L20.324 30.3682L21.305 28.5733H23.2458C25.1219 28.5733 25.21 28.6094 25.8871 29.6611C26.4808 30.5831 26.7648 30.7493 27.7501 30.7527C28.3898 30.7546 28.9128 30.6635 28.9128 30.55C28.9128 30.4365 28.3957 29.454 27.7632 28.3668L26.6135 26.39H23.1789H19.7442L18.2241 29.2912ZM35.7958 26.7643C35.5369 27.0247 35.4237 28.6818 35.4237 32.2115C35.4237 36.9475 35.4643 37.3062 36.0373 37.6147C37.2576 38.2715 38.1561 37.6243 41.3167 33.8118L44.415 30.0744V33.512C44.415 36.2214 44.5182 37.0536 44.902 37.44C45.5206 38.0619 46.0997 38.0619 46.7183 37.44C47.4385 36.7152 47.432 28.1017 46.7102 27.0653C45.7407 25.673 44.8534 26.2191 41.3176 30.386L38.0591 34.2263L37.9707 30.7169C37.9223 28.785 37.7311 27.0241 37.5453 26.7989C37.124 26.288 36.2856 26.2715 35.7958 26.7643ZM48.6523 26.598C48.5385 26.7122 48.4455 27.1732 48.4455 27.6223C48.4455 28.1984 48.9472 28.9369 50.1508 30.1327C51.0886 31.0643 51.856 31.9766 51.856 32.16C51.856 32.3434 51.0827 33.2603 50.138 34.1979C48.7097 35.6151 48.435 36.0605 48.5103 36.8384C48.5838 37.6012 48.759 37.7924 49.4581 37.8732C50.1498 37.9531 50.6927 37.6081 52.2662 36.0879L54.217 34.2038L56.0496 36.0667C57.8699 37.9175 58.7941 38.3111 59.5451 37.5557C60.2613 36.8352 59.9022 35.9891 58.0646 34.0641L56.2121 32.1232L57.9223 30.4262C59.7444 28.6179 60.2219 27.6033 59.6036 26.8538C58.8766 25.9727 57.9241 26.3476 56.0496 28.2533L54.217 30.1162L52.2882 28.2533C50.4806 26.507 49.2839 25.9624 48.6523 26.598ZM31.4592 34.7125L31.5482 37.774L32.3899 37.8717C33.4478 37.9942 33.6283 37.3948 33.5011 34.1835L33.4084 31.8481L32.3893 31.7496L31.3702 31.651L31.4592 34.7125Z" fill="white"/>
</svg>
