<svg width="64" height="64" viewBox="0 0 64 64" fill="none" xmlns="http://www.w3.org/2000/svg">
<path d="M52.9174 16.8368L34.2082 5.61585C33.5362 5.23273 32.776 5.03125 32.0024 5.03125C31.2288 5.03125 30.4686 5.23273 29.7966 5.61585L11.0862 16.8356C10.412 17.2488 9.85567 17.8289 9.47106 18.5198C9.08646 19.2108 8.88656 19.9893 8.89069 20.7801V43.1895C8.88664 43.9807 9.08654 44.7597 9.47111 45.4512C9.85567 46.1428 10.4119 46.7236 11.0862 47.1376L15.9925 50.0674L16.0202 50.0831C18.4974 51.3506 19.446 51.3506 20.5449 51.3506C24.4137 51.3506 26.8174 48.8469 26.8174 44.8157V23.0876C26.8197 22.8163 26.7142 22.5553 26.5242 22.3616C26.3342 22.168 26.0752 22.0577 25.8039 22.0548H23.11C22.8388 22.0577 22.5797 22.168 22.3897 22.3616C22.1997 22.5553 22.0943 22.8163 22.0965 23.0876V44.8157C22.1063 45.1267 22.0356 45.435 21.8911 45.7107C21.7466 45.9863 21.5334 46.22 21.272 46.3889C20.5618 46.8222 19.5302 46.7308 18.3662 46.1301L13.6646 43.3002C13.6466 43.2879 13.6319 43.2714 13.6218 43.2521C13.6117 43.2328 13.6066 43.2112 13.6068 43.1895V21.0967C13.6076 21.0713 13.6144 21.0464 13.6268 21.0242C13.6391 21.002 13.6566 20.9831 13.6778 20.9691L31.9549 9.77464C31.9685 9.76786 31.9835 9.76433 31.9988 9.76433C32.014 9.76433 32.0291 9.76786 32.0427 9.77464L50.3306 20.9691C50.3514 20.9843 50.3683 21.0042 50.3798 21.0272C50.3913 21.0503 50.3971 21.0757 50.3968 21.1015V43.1895C50.3973 43.2123 50.3926 43.2349 50.3833 43.2557C50.3739 43.2766 50.36 43.295 50.3426 43.3098L32.0391 54.2214C32.0079 54.2322 31.974 54.2322 31.9428 54.2214L27.2688 51.4457C27.1301 51.355 26.9698 51.3026 26.8042 51.294C26.6387 51.2853 26.4738 51.3206 26.3263 51.3963L26.2854 51.4204C24.995 52.1847 24.6484 52.3833 23.4519 52.8191C23.2569 52.8901 22.7983 53.0598 22.7586 53.5136C22.7188 53.9674 23.1546 54.29 23.5422 54.5151L29.7894 58.3513C30.455 58.75 31.2163 58.9609 31.9922 58.9616H32.062C32.8185 58.9497 33.5586 58.7393 34.2082 58.3513L52.9174 47.1412C53.5913 46.7259 54.1472 46.1443 54.5317 45.4523C54.9162 44.7603 55.1163 43.9811 55.1129 43.1895V20.7801C55.1167 19.9895 54.9167 19.2113 54.5321 18.5206C54.1475 17.8299 53.5914 17.25 52.9174 16.8368Z" fill="white"/>
<path d="M38.2452 39.4731C33.7566 39.4731 32.7997 38.2188 32.5156 36.1942C32.4836 35.9531 32.3661 35.7316 32.1845 35.5698C32.0029 35.4081 31.7693 35.317 31.5262 35.3131H29.1428C28.8742 35.3187 28.6188 35.4306 28.4325 35.6242C28.2461 35.8177 28.1441 36.0772 28.1486 36.3458C28.1486 38.1008 28.7649 43.8293 38.2501 43.8293C41.1847 43.8293 43.6258 43.1431 45.3074 41.8444C46.9889 40.5456 47.8893 38.6557 47.8893 36.4036C47.8893 31.8837 44.9402 30.6463 39.1324 29.8374C33.2282 29.0165 33.2282 28.5988 33.2282 27.684C33.2282 27.0256 33.2282 25.4836 37.4965 25.4836C40.5335 25.4836 42.1597 25.8676 42.6797 27.891C42.7257 28.1154 42.847 28.3172 43.0235 28.4632C43.1999 28.6092 43.4209 28.6906 43.6499 28.6939H46.0416C46.1826 28.6925 46.3216 28.6611 46.4495 28.6017C46.5774 28.5423 46.6911 28.4564 46.7831 28.3496C46.967 28.135 47.0587 27.8564 47.0383 27.5744C46.7289 23.2953 43.6005 21.125 37.5002 21.125C31.9559 21.125 28.6469 23.6227 28.6469 27.8056C28.6469 32.3917 32.0763 33.6881 37.2281 34.2249C43.2466 34.8472 43.2466 35.7548 43.2466 36.5565C43.2502 37.8059 42.7315 39.4731 38.2452 39.4731Z" fill="white"/>
</svg>
