<svg width="64" height="64" viewBox="0 0 64 64" fill="none" xmlns="http://www.w3.org/2000/svg">
<path d="M20.9059 28.011H18.8081L17.6637 33.8954H19.5259C20.7615 33.8954 21.6815 33.6621 22.2859 33.1976C22.8903 32.731 23.297 31.9554 23.5081 30.8665C23.7126 29.8221 23.6192 29.0843 23.2326 28.6554C22.8437 28.2265 22.0703 28.011 20.9059 28.011ZM31.9948 17.9688C17.2681 17.9688 5.32812 24.2487 5.32812 31.9954C5.32812 39.7421 17.2681 46.0243 31.9948 46.0243C46.7215 46.0243 58.6615 39.7421 58.6615 31.9954C58.6615 24.2487 46.7215 17.9688 31.9948 17.9688ZM24.7503 34.5265C24.1703 35.0821 23.4726 35.4999 22.7126 35.751C21.9659 35.991 21.0126 36.1154 19.857 36.1154H17.2326L16.5059 39.851H13.4437L16.177 25.7932H22.0659C23.837 25.7932 25.1281 26.2576 25.9415 27.1887C26.7548 28.1176 26.9992 29.4154 26.6748 31.0821C26.5505 31.7416 26.3217 32.377 25.997 32.9643C25.6792 33.531 25.2637 34.0532 24.7503 34.5265ZM33.6926 36.1154L34.8992 29.8954C35.0392 29.1887 34.9859 28.7043 34.7481 28.4487C34.5103 28.191 34.0015 28.0621 33.2215 28.0621H30.7948L29.2303 36.1176H26.1903L28.9237 22.0576H31.9615L31.2348 25.7954H33.9415C35.6459 25.7954 36.8192 26.0932 37.4659 26.6865C38.1126 27.2799 38.3059 28.2421 38.0503 29.5732L36.7792 36.1154H33.6926ZM50.5748 31.0821C50.4525 31.7421 50.2236 32.3779 49.897 32.9643C49.5792 33.531 49.1637 34.0532 48.6503 34.5265C48.07 35.0804 47.374 35.4986 46.6126 35.751C45.8659 35.991 44.9126 36.1154 43.7548 36.1154H41.1326L40.4059 39.8532H37.3437L40.077 25.7954H45.9637C47.7348 25.7954 49.0259 26.2599 49.8392 27.191C50.6526 28.1176 50.8992 29.4154 50.5748 31.0821ZM44.8081 28.011H42.7126L41.5659 33.8954H43.4281C44.6659 33.8954 45.5859 33.6621 46.1881 33.1976C46.7926 32.731 47.1992 31.9554 47.4126 30.8665C47.617 29.8221 47.5215 29.0843 47.1348 28.6554C46.7481 28.2265 45.9703 28.011 44.8081 28.011Z" fill="white"/>
</svg>
