<svg width="64" height="64" viewBox="0 0 64 64" fill="none" xmlns="http://www.w3.org/2000/svg">
<path d="M28.7045 34.3326V34.0447C28.8616 33.652 29.0186 33.2855 29.2019 32.9191C30.6507 29.857 30.8937 26.3618 29.8825 23.1287C29.8297 22.667 29.6352 22.2329 29.3259 21.8861C29.0166 21.5393 28.6075 21.2967 28.1548 21.1916C26.2073 21.056 24.2757 21.6225 22.7099 22.7884V23.2596C22.8818 25.3621 22.8292 27.477 22.5528 29.5684C22.4043 30.507 22.4734 31.4673 22.7548 32.3751C23.0362 33.2828 23.5224 34.1138 24.1758 34.8038C24.6571 35.3159 25.2366 35.7258 25.8798 36.0091C26.5229 36.2925 27.2165 36.4434 27.9192 36.453C28.1428 35.7327 28.405 35.0249 28.7045 34.3326ZM26.7674 23.0502C26.6203 22.8836 26.5368 22.6703 26.5318 22.4481C26.5477 22.3825 26.5768 22.3208 26.6173 22.2668C26.6578 22.2128 26.7088 22.1676 26.7674 22.134C27.1537 21.9335 27.5964 21.8689 28.0239 21.9507C28.6783 21.9507 29.3328 22.3696 29.2804 22.8408C29.1827 23.1001 29.0067 23.3225 28.7769 23.4773C28.547 23.6321 28.2747 23.7116 27.9977 23.7046H27.8406C27.4105 23.6367 27.0247 23.4015 26.7674 23.0502Z" fill="white"/>
<path d="M21.2173 29.387C21.4535 27.3891 21.506 25.3737 21.3744 23.3662V22.6332C21.2712 18.3118 22.6991 14.093 25.4057 10.7225C22.7879 9.88487 16.5054 8.10481 12.6573 10.9843C10.3013 12.6597 9.20189 15.801 9.43749 20.2773C9.95897 24.1881 10.8352 28.0433 12.0552 31.7953C13.8353 37.6067 15.8509 41.2715 17.5786 41.8736C17.8404 41.8736 18.6519 42.2139 19.8299 40.8003C21.5053 38.8109 23.0497 37.1093 23.7565 36.3502L23.2591 35.8528C22.4392 35.0082 21.8277 33.984 21.4733 32.8615C21.1188 31.739 21.0312 30.5493 21.2173 29.387ZM30.3794 38.2873C29.9605 38.1303 29.7511 38.0255 29.2799 38.5753C28.9998 38.8572 28.7457 39.1638 28.5208 39.4915C27.6046 40.6171 27.2119 41.0098 24.568 41.5595C24.2099 41.6189 23.859 41.7154 23.5209 41.8474C23.812 42.0514 24.1415 42.1939 24.4895 42.2663C25.6609 42.6625 26.9285 42.6729 28.1062 42.296C29.284 41.9191 30.31 41.1748 31.0338 40.1721C31.1014 40.0288 31.1365 39.8724 31.1365 39.714C31.1365 39.5556 31.1014 39.3991 31.0338 39.2559C30.951 38.8598 30.716 38.512 30.3794 38.2873ZM46.8449 23.0521C46.9665 22.369 47.0365 21.6777 47.0544 20.9841C45.3267 20.7747 43.3372 20.8008 42.5519 21.9265C41.0336 24.0992 44.0178 29.4655 45.1696 31.743C45.4226 32.1471 45.6499 32.5668 45.8502 32.9995C45.9547 33.282 46.0862 33.5537 46.2429 33.811C46.9245 32.0333 47.0702 30.0948 46.6617 28.2352C46.5364 27.3244 46.4752 26.4059 46.4785 25.4866C46.5367 24.6667 46.6593 23.8527 46.8449 23.0521ZM45.379 22.6332C45.1523 22.8644 44.8598 23.0198 44.5413 23.0783H44.3843C44.1354 23.0792 43.8921 23.0047 43.6864 22.8645C43.4808 22.7243 43.3225 22.525 43.2325 22.2929C43.2325 21.9265 43.756 21.6647 44.3843 21.56C45.0125 21.4553 45.6408 21.56 45.6931 21.9526C45.6812 22.2118 45.5685 22.456 45.379 22.6332Z" fill="white"/>
<path d="M45.0895 13.3622C46.814 15.2799 48.045 17.5891 48.6758 20.0898C48.6896 20.2203 48.6896 20.352 48.6758 20.4825C48.6844 21.4128 48.6055 22.3418 48.4402 23.2573C48.3161 24.0022 48.2374 24.754 48.2046 25.5085C48.1993 26.3845 48.2606 27.2596 48.3878 28.1263C48.9166 30.5283 48.583 33.0397 47.4454 35.2203L47.6287 35.4298C53.4401 26.2939 55.4819 15.692 53.6233 13.3622C52.4327 11.8655 50.9143 10.6622 49.185 9.84525C47.4558 9.02828 45.562 8.61946 43.6497 8.65031C42.2163 8.6303 40.785 8.77079 39.3828 9.06915C41.5815 10.0565 43.5314 11.5233 45.0895 13.3622Z" fill="white"/>
<path d="M57.2556 37.2363C57.0723 36.7127 56.287 35.0112 53.4075 35.6133C52.5454 35.7967 51.67 35.9105 50.7898 35.9536C53.153 31.957 54.9669 27.6601 56.1823 23.179C57.1509 19.3833 57.91 14.3049 55.8943 11.7133C54.4139 9.83536 52.5182 8.32614 50.3562 7.30419C48.1942 6.28224 45.8248 5.77539 43.4339 5.82344C41.2539 5.80946 39.0839 6.11821 36.9943 6.73964C35.7405 6.51927 34.4714 6.39674 33.1986 6.37316C30.9453 6.32685 28.7211 6.88743 26.7589 7.99616C25.2453 7.49734 23.6965 7.11233 22.1255 6.84435C20.2589 6.36844 18.3152 6.27617 16.4119 6.57314C14.5086 6.87011 12.6854 7.55013 11.0525 8.57206C7.80651 10.8495 6.3144 14.8285 6.57618 20.4042C7.07591 24.5502 7.95211 28.642 9.19391 32.6291C9.93251 35.1236 10.9054 37.5427 12.0996 39.854C12.9506 41.9826 14.5922 43.6993 16.6806 44.6445C17.4376 44.891 18.2465 44.9312 19.0242 44.7609C19.8018 44.5907 20.5199 44.2161 21.1046 43.6759C21.8053 44.4383 22.7163 44.9757 23.7224 45.2204C25.7571 45.781 27.9202 45.6521 29.874 44.8539V46.9743C29.852 49.0615 30.1252 51.1414 30.6855 53.1521C30.6929 53.2654 30.6929 53.3791 30.6855 53.4924C31.0346 54.7083 31.6722 55.8219 32.5441 56.7384C33.5985 57.7249 35.0015 58.2522 36.4446 58.2044C37.0615 58.2068 37.6765 58.1365 38.277 57.9949C39.4147 57.8563 40.5131 57.4906 41.5068 56.9196C42.5006 56.3485 43.3696 55.5836 44.0622 54.6704C45.8352 51.4774 46.6616 47.8452 46.4443 44.1995V43.5188H46.8893C49.0367 43.6676 51.1889 43.3089 53.1719 42.4718C54.3499 41.8697 58.1718 39.854 57.2556 37.2363ZM52.5175 41.0844C51.0204 41.6872 49.4194 41.9896 47.8055 41.9744C47.1069 41.993 46.4095 41.9047 45.7375 41.7126C45.4757 44.1733 44.8998 48.7543 44.5595 50.6653C44.4591 52.207 43.8098 53.6618 42.7294 54.7663C41.649 55.8707 40.2088 56.5517 38.6696 56.6861C38.1016 56.8063 37.5226 56.8677 36.9419 56.8693C35.8022 56.8427 34.7023 56.4449 33.8093 55.7361C32.9163 55.0274 32.2791 54.0466 31.9944 52.9427C31.3195 49.4429 31.0734 45.874 31.2614 42.3147C29.9871 43.4665 28.3191 44.085 26.6019 44.0424C25.7709 44.0285 24.9447 43.9142 24.1412 43.7021C23.9056 43.7021 21.8638 43.1 21.8899 41.7911C21.9161 40.4823 23.6176 40.2467 24.2459 40.1158C26.4972 39.6446 26.6542 39.4614 27.361 38.5713C27.5152 38.353 27.6812 38.1432 27.8584 37.9431C26.8428 37.905 25.8492 37.6365 24.9527 37.1577C24.3506 37.8122 22.7014 39.5922 20.9214 41.7126C20.5978 42.1938 20.167 42.5932 19.6627 42.8794C19.1585 43.1656 18.5947 43.3307 18.0157 43.3618C17.7118 43.4055 17.4033 43.4055 17.0995 43.3618C14.7959 42.4718 12.6232 38.676 10.6337 32.0008C9.39848 28.1369 8.5222 24.1673 8.01593 20.1425C7.75416 15.1164 9.06303 11.5563 11.864 9.67151C16.8901 6.11139 24.9527 8.86001 26.7851 9.51445C28.6496 8.27964 30.8604 7.67418 33.0939 7.78674C34.3305 7.78804 35.5619 7.94637 36.7587 8.25793C38.8652 7.54106 41.078 7.18699 43.303 7.21084C45.4642 7.15141 47.6098 7.59316 49.5717 8.50146C51.5337 9.40977 53.2587 10.76 54.6116 12.4463C56.4179 14.7499 55.2137 20.2995 54.6116 22.6293C53.2685 27.653 51.1393 32.4327 48.3029 36.7913C48.7217 37.0792 50.0044 37.6028 53.5384 36.7913C54.7425 36.5295 55.4493 36.7913 55.6849 37.4457C56.2608 38.8855 53.8525 40.4037 52.5175 41.032V41.0844Z" fill="white"/>
<path d="M46.2096 36.1574C45.5425 35.3696 44.9956 34.4874 44.5866 33.5396C44.5866 33.3564 44.2725 32.9114 43.9845 32.414C42.4662 29.7963 39.2988 23.9849 41.3668 21.053C42.0629 20.3127 42.9458 19.7737 43.9224 19.4927C44.899 19.2117 45.9332 19.1991 46.9164 19.4562C46.2434 17.5995 45.2414 15.8792 43.9583 14.3778C42.6501 12.7661 41.0036 11.4617 39.1353 10.557C37.267 9.65228 35.2227 9.16932 33.1471 9.14232C31.9222 9.06511 30.6948 9.24664 29.5447 9.67511C28.3946 10.1036 27.3476 10.7694 26.4719 11.6292C24.243 14.2549 22.9696 17.5583 22.8594 21.0007L23.252 20.7912C24.3404 20.2042 25.5311 19.831 26.7598 19.6918C27.2683 19.574 27.7956 19.5624 28.3088 19.6576C28.8219 19.7528 29.31 19.9529 29.7424 20.2452C30.1747 20.5376 30.5422 20.9159 30.8217 21.3567C31.1013 21.7975 31.2869 22.2912 31.367 22.8069C32.4432 26.3472 32.1729 30.1604 30.6079 33.5134C30.4377 33.8438 30.289 34.1848 30.1629 34.5344V34.8223C29.9011 35.5291 29.6655 36.1835 29.5084 36.7333C30.0127 36.6372 30.5345 36.7013 31.0005 36.9165C31.3943 37.1039 31.7431 37.3739 32.0231 37.7082C32.3032 38.0425 32.508 38.4331 32.6235 38.8536V39.2725C32.6362 39.3505 32.6362 39.43 32.6235 39.5081C32.3416 43.7919 32.5347 48.0937 33.1994 52.335C33.3173 52.889 33.5537 53.4109 33.8922 53.865C34.2308 54.3191 34.6637 54.6945 35.161 54.9656C35.6584 55.2367 36.2085 55.3969 36.7736 55.4354C37.3387 55.4738 37.9054 55.3895 38.4349 55.1883C39.6814 55.1042 40.8519 54.559 41.7182 53.6588C42.5845 52.7586 43.0845 51.5681 43.1207 50.3193C43.5133 48.0157 44.2986 41.5499 44.4034 40.1625C44.4034 37.3877 45.7646 36.838 46.6023 36.6024L46.2096 36.1574Z" fill="white"/>
<path d="M47.7059 38.0946L47.4964 37.9375H47.1823C46.5017 38.1207 45.8734 38.304 45.952 40.0317C46.7245 40.3382 47.5615 40.4462 48.3865 40.3458C49.6243 40.2938 50.8449 40.0373 51.9989 39.5867C52.7559 39.2451 53.4539 38.7857 54.067 38.2255C52.0002 38.9501 49.7411 38.9036 47.7059 38.0946Z" fill="white"/>
</svg>
