<svg width="58" height="52" viewBox="0 0 58 52" fill="none" xmlns="http://www.w3.org/2000/svg">
<path d="M47.2637 17.1112C46.66 16.905 46.052 16.7129 45.4397 16.5351C45.5412 16.1219 45.6349 15.7063 45.7207 15.2884C47.1019 8.57104 46.1988 3.15937 43.1164 1.37791C40.165 -0.331531 35.3247 1.44993 30.4419 5.70937C29.9619 6.12965 29.4916 6.56252 29.0312 7.00798C28.7242 6.71206 28.4094 6.42243 28.0867 6.13909C22.969 1.58451 17.8395 -0.333892 14.7606 1.45347C11.8092 3.16646 10.9321 8.25347 12.1752 14.6202C12.2996 15.2498 12.4393 15.8767 12.5943 16.5008C11.8888 16.7008 11.1892 16.9213 10.4965 17.1619C4.50396 19.2574 0.671875 22.5429 0.671875 25.95C0.671875 29.4704 4.78493 33.0003 11.0336 35.1406C11.5405 35.313 12.052 35.4732 12.5683 35.6211C12.4007 36.2893 12.2523 36.965 12.1233 37.6481C10.9427 43.9051 11.8635 48.8717 14.809 50.574C17.8513 52.3319 22.9549 50.5256 27.9297 46.1694C28.3232 45.8247 28.7168 45.4606 29.1103 45.0774C29.6077 45.5582 30.1193 46.025 30.645 46.4775C35.4617 50.6307 40.2181 52.3083 43.1589 50.6012C46.1988 48.8374 47.1869 43.5013 45.9037 37.0094C45.8053 36.5136 45.692 36.0075 45.5637 35.4913C45.9226 35.385 46.274 35.2752 46.6179 35.1619C53.111 33.005 57.3409 29.5176 57.3409 25.9535C57.3385 22.5299 53.3837 19.2232 47.2637 17.1112ZM32.0345 7.53923C36.2172 3.89014 40.1272 2.44986 41.9099 3.4793C43.807 4.57604 44.5449 8.9984 43.3525 14.7985C43.2738 15.1762 43.1888 15.5528 43.0975 15.9283C40.6014 15.3605 38.0701 14.9598 35.5207 14.7288C34.061 12.6261 32.4608 10.6244 30.7312 8.7375C31.1546 8.32666 31.5883 7.92724 32.0322 7.53923H32.0345ZM17.4039 28.8612C17.9162 29.8529 18.4518 30.8324 19.0106 31.7997C19.5797 32.7866 20.1727 33.759 20.7897 34.7168C19.0355 34.5261 17.2923 34.2451 15.5669 33.8751C16.0675 32.2553 16.6837 30.5731 17.4039 28.8612ZM17.4039 23.1556C16.6956 21.4804 16.0958 19.8324 15.6035 18.241C17.2209 17.8785 18.9445 17.5822 20.7413 17.3579C20.1392 18.2976 19.56 19.2511 19.0035 20.2184C18.4471 21.1857 17.9127 22.1647 17.4003 23.1556H17.4039ZM18.6907 26.009C19.4368 24.4531 20.2404 22.927 21.1014 21.4308C21.9616 19.9355 22.8773 18.4743 23.8485 17.0474C25.5344 16.9199 27.2627 16.8526 29.0087 16.8526C30.7548 16.8526 32.4937 16.9199 34.1784 17.0486C35.1394 18.4724 36.0496 19.9284 36.909 21.4167C37.7685 22.905 38.5827 24.4239 39.3516 25.9736C38.5929 27.5351 37.7807 29.0675 36.9149 30.5707C36.0563 32.0661 35.1512 33.5315 34.1997 34.9671C32.5174 35.0851 30.776 35.1501 29.0052 35.1501C27.2344 35.1501 25.5261 35.0946 23.8745 34.9872C22.8962 33.5555 21.973 32.0881 21.1049 30.5849C20.2368 29.0816 19.4309 27.5563 18.6872 26.009H18.6907ZM39.0104 31.7831C39.581 30.793 40.1288 29.79 40.6538 28.7739C41.3734 30.4055 42.0086 32.0731 42.5568 33.77C40.8112 34.1631 39.0462 34.4645 37.2691 34.6731C37.8688 33.7216 38.4493 32.7583 39.0104 31.7831ZM40.6301 23.1568C40.1075 22.1612 39.5641 21.1774 38.9998 20.2054C38.4489 19.2468 37.8747 18.3 37.2774 17.365C39.0848 17.594 40.819 17.8986 42.4447 18.2705C41.922 19.9286 41.3164 21.5594 40.6301 23.1568ZM29.0324 10.4717C30.2112 11.7598 31.3243 13.1066 32.3674 14.5069C30.1362 14.4006 27.9034 14.4006 25.669 14.5069C26.7704 13.0501 27.8978 11.6983 29.0324 10.4717ZM15.979 3.55132C17.8749 2.45104 22.0671 4.02354 26.4859 7.95125C26.7681 8.20271 27.0526 8.46597 27.3359 8.73868C25.5974 10.6253 23.9859 12.6253 22.5122 14.7253C19.9684 14.9545 17.4421 15.3488 14.9495 15.9058C14.8055 15.3266 14.6756 14.7434 14.5599 14.1562C13.4915 8.69854 14.1987 4.5843 15.979 3.55132ZM13.2153 33.2836C12.7431 33.149 12.2767 33.003 11.8163 32.8456C9.05382 31.9012 6.77181 30.6687 5.20521 29.3264C3.80271 28.1234 3.09201 26.9228 3.09201 25.95C3.09201 23.8828 6.16854 21.2455 11.2992 19.4569C11.9438 19.2326 12.5939 19.0276 13.2495 18.8419C14.0115 21.2907 14.9343 23.6865 16.012 26.0138C14.9215 28.3731 13.9872 30.8017 13.2153 33.2836ZM26.3348 44.3419C24.1354 46.2685 21.9325 47.6344 19.9905 48.3227C18.2456 48.9401 16.8561 48.9578 16.0167 48.4726C14.2294 47.4397 13.4856 43.4506 14.4997 38.1003C14.6201 37.4706 14.7579 36.841 14.9129 36.2114C17.4305 36.7537 19.9821 37.1241 22.5499 37.3199C24.0381 39.4309 25.6629 41.4421 27.4138 43.3408C27.062 43.6867 26.7019 44.0196 26.3348 44.3419ZM29.0997 41.6006C27.9522 40.3599 26.807 38.9869 25.6902 37.5112C26.7755 37.5537 27.8805 37.5749 29.0052 37.5749C30.1598 37.5749 31.3026 37.5501 32.4288 37.4994C31.3895 38.9221 30.2783 40.291 29.0997 41.6006ZM43.7999 44.9758C43.4623 46.7986 42.7835 48.0146 41.9441 48.501C40.1579 49.5375 36.3388 48.1905 32.221 44.6382C31.7488 44.2321 31.2766 43.7965 30.7961 43.3396C32.513 41.4335 34.0997 39.4142 35.5455 37.2951C38.1276 37.0764 40.6915 36.6799 43.2191 36.1087C43.3348 36.5762 43.4371 37.0342 43.526 37.4828C44.0939 40.3516 44.1753 42.9465 43.7999 44.9758ZM45.8541 32.8586C45.5448 32.9613 45.226 33.0605 44.9026 33.1573C44.11 30.6969 43.1512 28.2933 42.0326 25.963C43.1092 23.6637 44.0305 21.295 44.7904 18.8726C45.3701 19.0414 45.9332 19.2185 46.4751 19.4062C51.7191 21.2148 54.9184 23.8923 54.9184 25.95C54.9184 28.1458 51.4629 30.9957 45.8541 32.8586Z" fill="white"/>
<path d="M28.9974 31.0278C30.0021 31.031 30.9852 30.7361 31.8222 30.1803C32.6591 29.6245 33.3124 28.8328 33.6991 27.9055C34.0859 26.9782 34.1888 25.957 33.9948 24.9712C33.8008 23.9854 33.3186 23.0793 32.6093 22.3677C31.9 21.6561 30.9955 21.171 30.0103 20.9738C29.0252 20.7765 28.0036 20.8761 27.0751 21.2598C26.1465 21.6436 25.3527 22.2942 24.7942 23.1294C24.2357 23.9645 23.9375 24.9466 23.9375 25.9514C23.9361 26.617 24.0659 27.2764 24.3195 27.8918C24.5731 28.5073 24.9455 29.0667 25.4154 29.5382C25.8853 30.0096 26.4435 30.3838 27.0581 30.6394C27.6728 30.895 28.3317 31.027 28.9974 31.0278Z" fill="white"/>
</svg>
