<svg width="64" height="64" viewBox="0 0 64 64" fill="none" xmlns="http://www.w3.org/2000/svg">
<g clip-path="url(#clip0_402_318)">
<path d="M44.3471 44.697C46.7071 44.441 48.4991 42.2957 48.4191 39.7217C48.3792 38.4846 47.8822 37.3115 47.0323 36.4479C46.1824 35.5844 45.0453 35.0973 43.8591 35.0887H43.6937C41.1684 35.1722 39.2138 37.4038 39.2938 40.064C39.3791 41.3523 39.8671 42.4654 40.6004 43.2362C37.8298 48.9878 33.5951 53.1896 27.2405 56.7068C22.9259 59.111 18.4459 59.968 13.9686 59.367C10.3019 58.8522 7.45129 57.1353 5.6593 54.3054C3.05398 50.1037 2.81131 45.5541 5.00863 41.0073C6.55529 37.7489 9.00061 35.3447 10.5473 34.1454C10.1278 32.7048 9.77449 31.2441 9.48861 29.7683C-2.32199 38.7784 -1.098 50.9607 2.48065 56.7096C5.16863 61.0003 10.6246 63.6605 16.6539 63.6605C18.2999 63.6721 19.9409 63.4702 21.5392 63.0595C31.9658 60.9169 39.8644 54.3944 44.3444 44.6998L44.3471 44.697ZM58.6803 34.0591C52.491 26.4237 43.3684 22.2191 32.9445 22.2191H31.6405C31.2691 21.4467 30.6995 20.7971 29.9952 20.3426C29.2908 19.8882 28.4793 19.6467 27.6512 19.6452H27.4858C24.9632 19.7315 23.0059 21.9631 23.0885 24.6233C23.1685 27.1972 25.2059 29.2536 27.6485 29.2536H27.8138C28.674 29.2071 29.5044 28.909 30.2098 28.3933C30.9153 27.8776 31.4675 27.1651 31.8031 26.3374H33.2698C39.4591 26.3374 45.3231 28.224 50.6164 31.9137C54.6884 34.7464 57.6217 38.4334 59.2483 42.8967C60.635 46.4974 60.555 50.0146 59.0883 53.0198C56.8057 57.5666 52.979 60.0543 47.9284 60.0543C44.6724 60.0543 41.5764 59.0247 39.9471 58.2511C38.7748 59.3424 37.552 60.3732 36.2831 61.3398C39.7844 63.0567 43.3684 64 46.7897 64C54.6084 64 60.3897 59.4532 62.5896 54.9064C64.9496 49.9311 64.787 41.3523 58.6803 34.0591ZM17.3072 46.1551C17.3872 48.729 19.4246 50.7882 21.8672 50.7882H22.0299C24.5552 50.7047 26.5098 48.473 26.4298 45.8129C26.3899 44.5757 25.893 43.4026 25.0431 42.5391C24.1932 41.6755 23.0561 41.1885 21.8699 41.1798H21.7045C21.5108 41.1665 21.3166 41.1949 21.1339 41.2633C17.7952 35.431 16.4112 29.0838 16.8992 22.2191C17.2246 17.0713 18.8539 12.6108 21.7045 8.92104C24.0672 5.74887 28.6272 4.20452 31.7232 4.11826C40.3551 3.94574 44.0191 15.271 44.2644 19.8177C45.3231 20.0737 47.1151 20.6748 48.3364 21.1033C47.3577 7.20696 39.2164 0 31.3952 0C24.0672 0 17.3072 5.57635 14.6192 13.8129C10.8726 24.793 13.3153 35.3447 17.8779 43.6675C17.4699 44.2685 17.2246 45.2118 17.3072 46.1551Z" fill="white"/>
</g>
<defs>
<clipPath id="clip0_402_318">
<rect width="64" height="64" fill="white"/>
</clipPath>
</defs>
</svg>
