<svg width="64" height="64" viewBox="0 0 64 64" fill="none" xmlns="http://www.w3.org/2000/svg">
<path fill-rule="evenodd" clip-rule="evenodd" d="M38.877 5.49079C38.9996 6.2294 39.1619 6.93769 39.2376 7.06543C39.3133 7.19317 40.2748 7.29741 41.3744 7.29741H43.3734L43.3687 6.29219C43.3659 5.73916 43.2613 5.13139 43.136 4.94148C43.0106 4.75126 41.9507 4.49516 40.781 4.37206L38.6541 4.14844L38.877 5.49079ZM28.0733 6.8616L26.5839 7.63392L27.5786 8.88596C28.1257 9.57446 28.7594 10.2088 28.9866 10.2957C29.3764 10.4448 32.2006 9.00349 32.2006 8.65553C32.2006 8.3184 30.17 6.07165 29.873 6.08032C29.7023 6.08495 28.8923 6.43663 28.0733 6.8616ZM37.4767 8.2386C36.1964 8.56738 33.8921 9.45724 32.3558 10.2163C25.7447 13.4821 21.6471 18.3898 16.3748 29.3566C13.2834 35.7872 11.8666 39.9476 10.497 46.6154C9.77356 50.1377 9.12182 57.1161 9.39897 58.3734L9.59418 59.2595H23.2249C30.7221 59.2595 36.8559 59.2166 36.8559 59.164C36.8559 59.1117 36.4255 57.8937 35.8998 56.4576C32.9148 48.3088 31.6131 39.0788 32.5262 32.5374C33.5634 25.1053 37.8863 18.8543 44.1697 15.7004C49.1301 13.2106 53.2395 13.1864 57.0954 15.6237L58.5584 16.5485L59.2045 15.6438L59.851 14.7394L57.3219 12.8707C50.959 8.16901 44.0385 6.55354 37.4767 8.2386ZM52.9943 8.47429C52.9943 9.22959 53.2234 9.49683 54.3999 10.1154C55.6116 10.7526 55.8452 10.7906 56.0945 10.3922C56.3958 9.91005 55.6615 9.15381 53.8478 8.07807C52.9956 7.57268 52.9943 7.5733 52.9943 8.47429ZM17.0628 16.2569C16.3419 17.091 15.7519 17.851 15.7519 17.945C15.7519 18.0393 16.5334 18.6335 17.4886 19.2657L19.2251 20.4148L20.5801 18.8822C21.3252 18.0393 21.9388 17.28 21.9431 17.195C21.9478 17.1099 21.499 16.7508 20.9466 16.3973C20.3939 16.0434 19.5888 15.526 19.1577 15.2473C18.3834 14.7465 18.3576 14.7589 17.0628 16.2569ZM52.3736 16.0555C52.3736 16.8365 53.0111 17.182 54.4685 17.1906C55.524 17.1971 55.3971 16.0796 54.3133 15.822C53.8441 15.7103 53.2156 15.5467 52.9168 15.4582C52.5034 15.3358 52.3736 15.4787 52.3736 16.0555ZM45.0986 16.332C44.4261 16.4746 43.8265 16.6401 43.7663 16.7001C43.6176 16.8485 44.6852 19.0511 44.905 19.0492C45.0015 19.0483 45.4844 18.7254 45.9782 18.3316C46.7364 17.7269 46.8332 17.4956 46.5989 16.8442C46.3428 16.1313 46.2293 16.0923 45.0986 16.332ZM38.1852 20.9839L37.2203 21.9891L38.6029 23.5356L39.9852 25.0821L40.5861 24.3088C40.9166 23.8835 41.1903 23.3519 41.1941 23.1273C41.2 22.7772 39.4539 19.9786 39.2295 19.9786C39.1858 19.9786 38.7159 20.4311 38.1852 20.9839ZM9.06534 28.7361C8.99147 28.9378 8.65567 29.9087 8.31925 30.8938L7.70754 32.6846L8.43253 32.9593C8.83102 33.1102 9.74191 33.3908 10.4567 33.5825C11.1714 33.7743 11.9411 34.0019 12.167 34.0885C12.6313 34.2661 14.0564 30.5171 13.6573 30.1679C13.5292 30.0556 12.4736 29.6049 11.312 29.1664C9.81795 28.6025 9.16062 28.4763 9.06534 28.7361ZM34.4166 29.8626L33.7766 31.0865L35.3886 32.4916C36.275 33.2646 37.0962 33.8971 37.2129 33.8971C37.4149 33.8971 38.202 30.7682 38.0263 30.664C37.98 30.6364 37.3634 30.1697 36.6561 29.6266C35.9488 29.0835 35.2995 28.639 35.2132 28.639C35.127 28.639 34.7685 29.1896 34.4166 29.8626ZM33.749 38.4422C33.7471 38.7493 33.659 39.5229 33.5532 40.1613L33.3604 41.3221L35.4119 42.2491C36.54 42.7588 37.5431 43.176 37.6411 43.176C37.7392 43.176 37.7774 42.4452 37.7256 41.5522L37.6318 39.9284L35.6921 38.9062C33.9926 38.0104 33.7521 37.9529 33.749 38.4422ZM3.7285 48.0063C3.55656 49.3475 3.50287 50.5364 3.60963 50.649C3.71608 50.7613 4.86625 50.9499 6.16539 51.0678L8.5278 51.2824L8.92102 48.7638C9.13703 47.3785 9.25527 46.1867 9.18358 46.115C9.11158 46.0435 7.9251 45.891 6.54713 45.7766L4.04133 45.5685L3.7285 48.0063ZM35.1096 51.1405C35.1962 51.4383 35.4153 52.253 35.5959 52.9514L35.9246 54.2214L38.0198 54.4184C41.8579 54.7797 41.6568 54.926 40.5107 52.6096L39.516 50.5992H37.234C35.2077 50.5992 34.9696 50.6598 35.1096 51.1405Z" fill="white"/>
</svg>
