<svg width="64" height="59" viewBox="0 0 64 59" fill="none" xmlns="http://www.w3.org/2000/svg">
<g filter="url(#filter0_d_402_614)">
<path fill-rule="evenodd" clip-rule="evenodd" d="M48.1338 52.598C48.9768 53.1949 50.0634 53.3442 51.0321 52.9776C52.0008 52.6084 52.713 51.7811 52.9277 50.7783C55.2029 40.0857 60.722 13.0215 62.793 3.29493C62.9501 2.56184 62.6882 1.79994 62.1122 1.31034C61.5362 0.820743 60.7377 0.679361 60.0256 0.943797C49.0475 5.00722 15.2389 17.6923 1.4201 22.8056C0.543006 23.1303 -0.0277584 23.9734 0.00104165 24.8976C0.0324599 25.8244 0.655588 26.6282 1.55363 26.8979C7.75087 28.7515 15.8856 31.3305 15.8856 31.3305C15.8856 31.3305 19.6872 42.8112 21.6691 48.6497C21.9179 49.3828 22.4912 49.9588 23.2479 50.1578C24.0019 50.3542 24.8083 50.1473 25.3713 49.6159C28.555 46.6102 33.4772 41.9629 33.4772 41.9629C33.4772 41.9629 42.8293 48.8199 48.1338 52.598ZM19.3075 29.88L23.7035 44.3795L24.68 35.1975C24.68 35.1975 41.6642 19.8785 51.3463 11.1469C51.629 10.8903 51.6683 10.4609 51.4327 10.1598C51.1996 9.85872 50.7703 9.78803 50.4482 9.99224C39.2267 17.1582 19.3075 29.88 19.3075 29.88Z" fill="white"/>
</g>
<defs>
<filter id="filter0_d_402_614" x="-4" y="0.8125" width="70.8379" height="60.3633" filterUnits="userSpaceOnUse" color-interpolation-filters="sRGB">
<feFlood flood-opacity="0" result="BackgroundImageFix"/>
<feColorMatrix in="SourceAlpha" type="matrix" values="0 0 0 0 0 0 0 0 0 0 0 0 0 0 0 0 0 0 127 0" result="hardAlpha"/>
<feOffset dy="4"/>
<feGaussianBlur stdDeviation="2"/>
<feComposite in2="hardAlpha" operator="out"/>
<feColorMatrix type="matrix" values="0 0 0 0 0 0 0 0 0 0 0 0 0 0 0 0 0 0 0.25 0"/>
<feBlend mode="normal" in2="BackgroundImageFix" result="effect1_dropShadow_402_614"/>
<feBlend mode="normal" in="SourceGraphic" in2="effect1_dropShadow_402_614" result="shape"/>
</filter>
</defs>
</svg>
