<svg width="53" height="54" viewBox="0 0 53 54" fill="none" xmlns="http://www.w3.org/2000/svg">
<path fill-rule="evenodd" clip-rule="evenodd" d="M39.8277 2.16162C31.1689 0.362795 22.1895 0.362795 13.5307 2.16162L12.5977 2.35345C10.162 2.85953 7.92505 3.98321 6.1352 5.59967C4.34535 7.21613 3.07271 9.26208 2.45865 11.5102C0.263783 19.5481 0.263783 27.9681 2.45865 36.0059C3.04425 38.15 4.22942 40.1121 5.89401 41.6932C7.5586 43.2744 9.64343 44.4184 11.9371 45.0093L13.2169 52.1096C13.2578 52.3351 13.3629 52.5462 13.5214 52.7211C13.6799 52.896 13.8859 53.0282 14.118 53.1039C14.3502 53.1797 14.5999 53.1962 14.8412 53.1518C15.0826 53.1074 15.3067 53.0036 15.4902 52.8514L23.0064 46.6028C28.6486 46.9227 34.3112 46.5034 39.8277 45.3571L40.7634 45.1653C43.1991 44.6592 45.4361 43.5355 47.2259 41.9191C49.0158 40.3026 50.2884 38.2567 50.9025 36.0085C53.0971 27.9706 53.0971 19.5507 50.9025 11.5128C50.2882 9.26431 49.0151 7.21814 47.2248 5.60165C45.4344 3.98516 43.1968 2.86167 40.7607 2.35601L39.8277 2.16162ZM15.8535 11.3031C15.342 11.2339 14.8204 11.3296 14.3756 11.5742H14.337C13.305 12.1369 12.3747 12.8454 11.5821 13.6792C10.9216 14.3877 10.5638 15.1039 10.4702 15.7945C10.4152 16.2037 10.4537 16.6181 10.5831 17.0094L10.6326 17.035C11.3757 19.0633 12.3445 21.0149 13.5279 22.8514C15.0539 25.4308 16.9317 27.8165 19.1148 29.9492L19.1809 30.0361L19.2855 30.1077L19.3488 30.1768L19.4258 30.2382C21.7286 32.2732 24.3016 34.0267 27.0824 35.456C30.2611 37.0649 32.1904 37.8245 33.3491 38.1417V38.157C33.6876 38.2542 33.9958 38.2977 34.3068 38.2977C35.2936 38.2299 36.2276 37.8572 36.9599 37.2388C37.8544 36.5021 38.6112 35.6351 39.2002 34.6708V34.6529C39.7534 33.6809 39.5662 32.7653 38.7681 32.1437C37.1649 30.8419 35.4314 29.6856 33.5913 28.6907C32.3583 28.0692 31.106 28.4452 30.5996 29.0744L29.518 30.3431C28.9621 30.9723 27.9548 30.8853 27.9548 30.8853L27.9273 30.9006C20.4111 29.1179 18.4048 22.0457 18.4048 22.0457C18.4048 22.0457 18.3112 21.0839 19.0075 20.5929L20.3616 19.58C21.0111 19.0889 21.4624 17.9277 20.7661 16.7818C19.7027 15.07 18.461 13.4595 17.0589 11.9732C16.7531 11.6234 16.3243 11.3852 15.848 11.3005L15.8535 11.3031ZM28.552 8.22863C28.1871 8.22863 27.8371 8.36337 27.579 8.60321C27.3209 8.84304 27.1759 9.16833 27.1759 9.50751C27.1759 9.84669 27.3209 10.172 27.579 10.4118C27.8371 10.6517 28.1871 10.7864 28.552 10.7864C32.0335 10.7864 34.9233 11.8428 37.2104 13.8685C38.3856 14.976 39.302 16.2881 39.902 17.7256C40.5047 19.1656 40.7799 20.7028 40.7084 22.2426C40.7008 22.4106 40.7289 22.5782 40.791 22.7361C40.8532 22.894 40.9482 23.0389 41.0706 23.1627C41.3178 23.4126 41.6617 23.561 42.0267 23.5752C42.3916 23.5895 42.7477 23.4684 43.0166 23.2386C43.2856 23.0089 43.4452 22.6892 43.4606 22.35C43.5459 20.456 43.2076 18.5661 42.467 16.7997C41.7232 15.025 40.5954 13.411 39.1534 12.0576L39.1259 12.032C36.2884 9.51263 32.6968 8.22863 28.552 8.22863ZM28.4585 12.4336C28.0935 12.4336 27.7435 12.5683 27.4854 12.8082C27.2273 13.048 27.0824 13.3733 27.0824 13.7125C27.0824 14.0517 27.2273 14.3769 27.4854 14.6168C27.7435 14.8566 28.0935 14.9914 28.4585 14.9914H28.5052C31.0152 15.1576 32.8427 15.9352 34.1224 17.2115C35.4352 18.5262 36.115 20.1606 36.0627 22.1812C36.0543 22.5204 36.1913 22.8488 36.4434 23.0942C36.6955 23.3395 37.0422 23.4817 37.4072 23.4895C37.7721 23.4973 38.1255 23.3701 38.3895 23.1357C38.6535 22.9014 38.8065 22.5792 38.8149 22.2401C38.8809 19.5877 37.9617 17.2985 36.1398 15.4722V15.4671C34.2766 13.6102 31.7198 12.628 28.6429 12.4362L28.5961 12.431L28.4585 12.4336ZM28.4062 16.7178C28.222 16.7027 28.0365 16.7223 27.8606 16.7753C27.6848 16.8283 27.5222 16.9137 27.3826 17.0264C27.2431 17.1391 27.1294 17.2768 27.0484 17.4312C26.9673 17.5856 26.9206 17.7537 26.911 17.9252C26.9014 18.0968 26.929 18.2684 26.9924 18.4299C27.0557 18.5913 27.1534 18.7392 27.2796 18.8647C27.4058 18.9903 27.5579 19.0909 27.7269 19.1607C27.8958 19.2304 28.0782 19.2677 28.2631 19.2705C29.4135 19.3268 30.1483 19.649 30.6107 20.0813C31.0758 20.5161 31.4226 21.2144 31.4858 22.3066C31.4893 22.4782 31.5299 22.6474 31.6052 22.8041C31.6805 22.9609 31.7889 23.1019 31.9241 23.2189C32.0593 23.3358 32.2185 23.4263 32.3921 23.4849C32.5657 23.5435 32.7502 23.569 32.9347 23.5599C33.1191 23.5508 33.2997 23.5072 33.4657 23.4319C33.6316 23.3566 33.7796 23.2509 33.9007 23.1213C34.0218 22.9917 34.1136 22.8408 34.1706 22.6775C34.2276 22.5143 34.2487 22.342 34.2325 22.171C34.1445 20.6363 33.627 19.2807 32.5675 18.2832C31.5024 17.2857 30.052 16.7997 28.4062 16.7178Z" fill="white"/>
</svg>
