<svg width="56" height="62" viewBox="0 0 56 62" fill="none" xmlns="http://www.w3.org/2000/svg">
<path d="M53.5949 47.3631L29.0918 61.2257V50.4202L44.357 42.036L53.5949 47.3631ZM55.2607 45.8497V16.8534L46.2954 21.9686V40.674L55.2607 45.8497ZM2.40803 47.3631L26.9111 61.1954V50.4202L11.6459 42.036L2.40803 47.3631ZM0.742188 45.8497V16.8534L9.70746 21.9686V40.674L0.742188 45.8497ZM1.80227 14.9768L26.9111 0.78125V11.2236L10.8281 20.0617L10.6767 20.1223L1.80227 14.9768ZM54.2006 14.9768L29.0918 0.78125V11.2236L45.1748 20.092L45.2959 20.1525L54.2006 14.9768ZM26.9111 47.9685L11.8579 39.6751V23.3004L26.9111 31.9872V47.9685ZM29.0918 47.9685L44.145 39.7054V23.3004L29.0918 31.9872V47.9685ZM12.8574 21.3935L28.0014 13.0699L43.1455 21.3935L28.0014 30.1106L12.8574 21.3935Z" fill="white"/>
</svg>
