<svg width="55" height="54" viewBox="0 0 55 54" fill="none" xmlns="http://www.w3.org/2000/svg">
<path d="M46.496 8.43154C44.0324 6.00692 41.0978 4.0845 37.8636 2.77642C34.6293 1.46834 31.1601 0.80077 27.6583 0.812656C12.9858 0.812656 1.02748 12.4635 1.02748 26.7588C1.02748 31.3406 2.26362 35.7915 4.57467 39.7187L0.8125 53.1761L14.9207 49.5631C18.8172 51.6314 23.1974 52.731 27.6583 52.731C42.3308 52.731 54.2891 41.0802 54.2891 26.7849C54.2891 19.8468 51.5212 13.3275 46.496 8.43154ZM27.6583 48.3325C23.6811 48.3325 19.7846 47.2852 16.3718 45.3216L15.5656 44.8503L7.18132 46.9972L9.41176 39.038L8.8743 38.2264C6.66469 34.7886 5.49141 30.8149 5.48835 26.7588C5.48835 14.8722 15.4312 5.18501 27.6314 5.18501C33.5434 5.18501 39.1061 7.43664 43.2713 11.521C45.3338 13.5212 46.9682 15.9003 48.0799 18.5205C49.1916 21.1407 49.7585 23.9497 49.7476 26.7849C49.8014 38.6714 39.8585 48.3325 27.6583 48.3325ZM39.8047 32.2046C39.1329 31.8904 35.8545 30.3195 35.2633 30.0838C34.6452 29.8744 34.2152 29.7697 33.7584 30.398C33.3016 31.0526 32.0385 32.5187 31.6623 32.9376C31.2861 33.3827 30.883 33.4351 30.2112 33.0947C29.5394 32.7806 27.3896 32.0737 24.8635 29.8744C22.875 28.1464 21.5582 26.0257 21.1551 25.3711C20.7789 24.7166 21.1014 24.3762 21.4507 24.0359C21.7463 23.7479 22.1225 23.2766 22.445 22.91C22.7675 22.5435 22.9018 22.2555 23.1168 21.8366C23.3318 21.3915 23.2243 21.025 23.0631 20.7108C22.9018 20.3966 21.5582 17.2024 21.0208 15.8933C20.4833 14.6366 19.919 14.7937 19.5159 14.7675H18.226C17.7692 14.7675 17.0705 14.9246 16.4524 15.5792C15.8612 16.2337 14.1413 17.8046 14.1413 20.9988C14.1413 24.1929 16.533 27.2824 16.8555 27.7013C17.178 28.1464 21.5582 34.6918 28.2226 37.4933C29.8081 38.174 31.0443 38.5667 32.0117 38.8547C33.5972 39.3522 35.0483 39.2736 36.2038 39.1165C37.4937 38.9333 40.1541 37.5456 40.6915 36.0271C41.2559 34.5086 41.2559 33.2256 41.0678 32.9376C40.8797 32.6496 40.4766 32.5187 39.8047 32.2046Z" fill="white"/>
</svg>
